<svg version="1.1" viewBox="0.0 0.0 960.0 720.0" fill="none" stroke="none" stroke-linecap="square" stroke-miterlimit="10" xmlns:xlink="http://www.w3.org/1999/xlink" xmlns="http://www.w3.org/2000/svg"><clipPath id="p.0"><path d="m0 0l960.0 0l0 720.0l-960.0 0l0 -720.0z" clip-rule="nonzero"/></clipPath><g clip-path="url(#p.0)"><path fill="#ffffff" d="m0 0l960.0 0l0 720.0l-960.0 0z" fill-rule="evenodd"/><path fill="#008abc" d="m353.0866 129.4895l253.82678 0l0 55.27559l-253.82678 0z" fill-rule="evenodd"/><path fill="#f3f3f3" d="m374.8672 169.2095l0 -22.90625l8.640625 0q2.28125 0 3.484375 0.21875q1.6875 0.28125 2.828125 1.078125q1.140625 0.78125 1.828125 2.203125q0.703125 1.421875 0.703125 3.125q0 2.921875 -1.859375 4.953125q-1.859375 2.015625 -6.71875 2.015625l-5.875 0l0 9.3125l-3.03125 0zm3.03125 -12.015625l5.921875 0q2.9375 0 4.171875 -1.09375q1.234375 -1.09375 1.234375 -3.078125q0 -1.4375 -0.734375 -2.453125q-0.71875 -1.03125 -1.90625 -1.359375q-0.765625 -0.203125 -2.828125 -0.203125l-5.859375 0l0 8.1875zm17.921875 12.015625l0 -16.59375l2.53125 0l0 2.515625q0.96875 -1.765625 1.78125 -2.328125q0.828125 -0.5625 1.8125 -0.5625q1.421875 0 2.890625 0.90625l-0.96875 2.609375q-1.03125 -0.609375 -2.0625 -0.609375q-0.921875 0 -1.65625 0.5625q-0.734375 0.546875 -1.046875 1.53125q-0.46875 1.5 -0.46875 3.28125l0 8.6875l-2.8125 0zm22.046875 -5.34375l2.90625 0.359375q-0.6875 2.546875 -2.546875 3.953125q-1.859375 1.40625 -4.75 1.40625q-3.640625 0 -5.78125 -2.234375q-2.125 -2.25 -2.125 -6.296875q0 -4.1875 2.15625 -6.5q2.15625 -2.3125 5.59375 -2.3125q3.328125 0 5.4375 2.265625q2.109375 2.265625 2.109375 6.375q0 0.25 -0.015625 0.75l-12.375 0q0.15625 2.734375 1.546875 4.1875q1.390625 1.453125 3.46875 1.453125q1.546875 0 2.640625 -0.8125q1.09375 -0.8125 1.734375 -2.59375zm-9.234375 -4.546875l9.265625 0q-0.1875 -2.09375 -1.0625 -3.140625q-1.34375 -1.625 -3.484375 -1.625q-1.9375 0 -3.265625 1.296875q-1.3125 1.296875 -1.453125 3.46875zm14.578125 3.015625l0 -2.828125l8.640625 0l0 2.828125l-8.640625 0zm11.75 13.234375l0 -22.953125l2.5625 0l0 2.15625q0.90625 -1.265625 2.046875 -1.890625q1.140625 -0.640625 2.765625 -0.640625q2.125 0 3.75 1.09375q1.625 1.09375 2.453125 3.09375q0.828125 1.984375 0.828125 4.359375q0 2.546875 -0.921875 4.59375q-0.90625 2.03125 -2.65625 3.125q-1.734375 1.078125 -3.65625 1.078125q-1.40625 0 -2.53125 -0.59375q-1.109375 -0.59375 -1.828125 -1.5l0 8.078125l-2.8125 0zm2.546875 -14.5625q0 3.203125 1.296875 4.734375q1.296875 1.53125 3.140625 1.53125q1.875 0 3.203125 -1.578125q1.34375 -1.59375 1.34375 -4.921875q0 -3.171875 -1.3125 -4.75q-1.296875 -1.578125 -3.109375 -1.578125q-1.796875 0 -3.1875 1.6875q-1.375 1.671875 -1.375 4.875zm15.21875 8.203125l0 -16.59375l2.53125 0l0 2.515625q0.96875 -1.765625 1.78125 -2.328125q0.828125 -0.5625 1.8125 -0.5625q1.421875 0 2.890625 0.90625l-0.96875 2.609375q-1.03125 -0.609375 -2.0625 -0.609375q-0.921875 0 -1.65625 0.5625q-0.734375 0.546875 -1.046875 1.53125q-0.46875 1.5 -0.46875 3.28125l0 8.6875l-2.8125 0zm9.640625 -8.296875q0 -4.609375 2.5625 -6.828125q2.140625 -1.84375 5.21875 -1.84375q3.421875 0 5.59375 2.25q2.171875 2.234375 2.171875 6.1875q0 3.203125 -0.96875 5.046875q-0.953125 1.828125 -2.796875 2.84375q-1.828125 1.015625 -4.0 1.015625q-3.484375 0 -5.640625 -2.234375q-2.140625 -2.234375 -2.140625 -6.4375zm2.890625 0q0 3.1875 1.390625 4.78125q1.390625 1.578125 3.5 1.578125q2.09375 0 3.484375 -1.59375q1.390625 -1.59375 1.390625 -4.859375q0 -3.078125 -1.40625 -4.65625q-1.390625 -1.59375 -3.46875 -1.59375q-2.109375 0 -3.5 1.578125q-1.390625 1.578125 -1.390625 4.765625zm26.78125 2.21875l2.765625 0.359375q-0.453125 2.859375 -2.328125 4.484375q-1.859375 1.609375 -4.578125 1.609375q-3.40625 0 -5.484375 -2.21875q-2.0625 -2.234375 -2.0625 -6.390625q0 -2.6875 0.890625 -4.703125q0.890625 -2.015625 2.703125 -3.015625q1.828125 -1.015625 3.96875 -1.015625q2.703125 0 4.421875 1.375q1.71875 1.359375 2.203125 3.875l-2.734375 0.421875q-0.390625 -1.671875 -1.390625 -2.515625q-0.984375 -0.84375 -2.390625 -0.84375q-2.125 0 -3.453125 1.53125q-1.328125 1.515625 -1.328125 4.8125q0 3.34375 1.28125 4.859375q1.28125 1.515625 3.34375 1.515625q1.65625 0 2.765625 -1.015625q1.109375 -1.015625 1.40625 -3.125zm16.53125 0.734375l2.90625 0.359375q-0.6875 2.546875 -2.546875 3.953125q-1.859375 1.40625 -4.75 1.40625q-3.640625 0 -5.78125 -2.234375q-2.125 -2.25 -2.125 -6.296875q0 -4.1875 2.15625 -6.5q2.15625 -2.3125 5.59375 -2.3125q3.328125 0 5.4375 2.265625q2.109375 2.265625 2.109375 6.375q0 0.25 -0.015625 0.75l-12.375 0q0.15625 2.734375 1.546875 4.1875q1.390625 1.453125 3.46875 1.453125q1.546875 0 2.640625 -0.8125q1.09375 -0.8125 1.734375 -2.59375zm-9.234375 -4.546875l9.265625 0q-0.1875 -2.09375 -1.0625 -3.140625q-1.34375 -1.625 -3.484375 -1.625q-1.9375 0 -3.265625 1.296875q-1.3125 1.296875 -1.453125 3.46875zm14.546875 4.9375l2.78125 -0.4375q0.234375 1.671875 1.296875 2.5625q1.078125 0.890625 3.0 0.890625q1.9375 0 2.875 -0.78125q0.9375 -0.796875 0.9375 -1.859375q0 -0.953125 -0.828125 -1.5q-0.578125 -0.375 -2.875 -0.953125q-3.09375 -0.78125 -4.296875 -1.34375q-1.1875 -0.578125 -1.8125 -1.578125q-0.609375 -1.015625 -0.609375 -2.234375q0 -1.109375 0.5 -2.046875q0.515625 -0.953125 1.390625 -1.578125q0.65625 -0.484375 1.78125 -0.8125q1.140625 -0.34375 2.4375 -0.34375q1.953125 0 3.421875 0.5625q1.484375 0.5625 2.1875 1.53125q0.703125 0.953125 0.96875 2.5625l-2.75 0.375q-0.1875 -1.28125 -1.09375 -2.0q-0.890625 -0.71875 -2.53125 -0.71875q-1.9375 0 -2.765625 0.640625q-0.828125 0.640625 -0.828125 1.5q0 0.546875 0.34375 0.984375q0.34375 0.453125 1.078125 0.75q0.421875 0.15625 2.484375 0.71875q2.984375 0.796875 4.15625 1.3125q1.1875 0.5 1.859375 1.46875q0.671875 0.96875 0.671875 2.40625q0 1.40625 -0.828125 2.65625q-0.8125 1.234375 -2.359375 1.921875q-1.546875 0.671875 -3.5 0.671875q-3.234375 0 -4.9375 -1.34375q-1.6875 -1.34375 -2.15625 -3.984375zm16.0 0l2.78125 -0.4375q0.234375 1.671875 1.296875 2.5625q1.078125 0.890625 3.0 0.890625q1.9375 0 2.875 -0.78125q0.9375 -0.796875 0.9375 -1.859375q0 -0.953125 -0.828125 -1.5q-0.578125 -0.375 -2.875 -0.953125q-3.09375 -0.78125 -4.296875 -1.34375q-1.1875 -0.578125 -1.8125 -1.578125q-0.609375 -1.015625 -0.609375 -2.234375q0 -1.109375 0.5 -2.046875q0.515625 -0.953125 1.390625 -1.578125q0.65625 -0.484375 1.78125 -0.8125q1.140625 -0.34375 2.4375 -0.34375q1.953125 0 3.421875 0.5625q1.484375 0.5625 2.1875 1.53125q0.703125 0.953125 0.96875 2.5625l-2.75 0.375q-0.1875 -1.28125 -1.09375 -2.0q-0.890625 -0.71875 -2.53125 -0.71875q-1.9375 0 -2.765625 0.640625q-0.828125 0.640625 -0.828125 1.5q0 0.546875 0.34375 0.984375q0.34375 0.453125 1.078125 0.75q0.421875 0.15625 2.484375 0.71875q2.984375 0.796875 4.15625 1.3125q1.1875 0.5 1.859375 1.46875q0.671875 0.96875 0.671875 2.40625q0 1.40625 -0.828125 2.65625q-0.8125 1.234375 -2.359375 1.921875q-1.546875 0.671875 -3.5 0.671875q-3.234375 0 -4.9375 -1.34375q-1.6875 -1.34375 -2.15625 -3.984375zm17.140625 -14.71875l0 -3.234375l2.8125 0l0 3.234375l-2.8125 0zm0 19.671875l0 -16.59375l2.8125 0l0 16.59375l-2.8125 0zm7.09375 0l0 -16.59375l2.53125 0l0 2.359375q1.828125 -2.734375 5.28125 -2.734375q1.5 0 2.75 0.546875q1.265625 0.53125 1.890625 1.40625q0.625 0.875 0.875 2.078125q0.15625 0.78125 0.15625 2.734375l0 10.203125l-2.8125 0l0 -10.09375q0 -1.71875 -0.328125 -2.5625q-0.328125 -0.859375 -1.171875 -1.359375q-0.828125 -0.515625 -1.953125 -0.515625q-1.796875 0 -3.109375 1.140625q-1.296875 1.140625 -1.296875 4.328125l0 9.0625l-2.8125 0zm17.28125 1.375l2.734375 0.40625q0.171875 1.265625 0.953125 1.84375q1.046875 0.78125 2.859375 0.78125q1.953125 0 3.015625 -0.78125q1.0625 -0.78125 1.4375 -2.1875q0.21875 -0.859375 0.203125 -3.609375q-1.84375 2.171875 -4.59375 2.171875q-3.421875 0 -5.296875 -2.46875q-1.875 -2.46875 -1.875 -5.921875q0 -2.375 0.859375 -4.375q0.859375 -2.015625 2.484375 -3.109375q1.640625 -1.09375 3.84375 -1.09375q2.9375 0 4.84375 2.375l0 -2.0l2.59375 0l0 14.34375q0 3.875 -0.796875 5.484375q-0.78125 1.625 -2.5 2.5625q-1.703125 0.9375 -4.203125 0.9375q-2.96875 0 -4.796875 -1.34375q-1.828125 -1.328125 -1.765625 -4.015625zm2.328125 -9.96875q0 3.265625 1.296875 4.765625q1.296875 1.5 3.25 1.5q1.9375 0 3.25 -1.484375q1.3125 -1.5 1.3125 -4.6875q0 -3.046875 -1.359375 -4.59375q-1.34375 -1.546875 -3.25 -1.546875q-1.875 0 -3.1875 1.53125q-1.3125 1.515625 -1.3125 4.515625z" fill-rule="nonzero"/><path fill="#008abc" d="m227.89764 311.95145l253.82675 0l0 103.18109l-253.82675 0z" fill-rule="evenodd"/><path fill="#f3f3f3" d="m290.74072 351.67145l8.796875 -22.90625l3.265625 0l9.375 22.90625l-3.453125 0l-2.671875 -6.9375l-9.578125 0l-2.515625 6.9375l-3.21875 0zm6.609375 -9.40625l7.765625 0l-2.390625 -6.34375q-1.09375 -2.890625 -1.625 -4.75q-0.4375 2.203125 -1.234375 4.375l-2.515625 6.71875zm16.890625 9.40625l0 -16.59375l2.53125 0l0 2.359375q1.828125 -2.734375 5.28125 -2.734375q1.5 0 2.75 0.546875q1.265625 0.53125 1.890625 1.40625q0.625 0.875 0.875 2.078125q0.15625 0.78125 0.15625 2.734375l0 10.203125l-2.8125 0l0 -10.09375q0 -1.71875 -0.328125 -2.5625q-0.328125 -0.859375 -1.171875 -1.359375q-0.828125 -0.515625 -1.953125 -0.515625q-1.796875 0 -3.109375 1.140625q-1.296875 1.140625 -1.296875 4.328125l0 9.0625l-2.8125 0zm28.625 -2.046875q-1.5625 1.328125 -3.015625 1.875q-1.4375 0.546875 -3.09375 0.546875q-2.734375 0 -4.203125 -1.328125q-1.46875 -1.34375 -1.46875 -3.421875q0 -1.21875 0.546875 -2.21875q0.5625 -1.015625 1.453125 -1.625q0.90625 -0.609375 2.03125 -0.921875q0.828125 -0.21875 2.5 -0.421875q3.40625 -0.40625 5.015625 -0.96875q0.015625 -0.578125 0.015625 -0.734375q0 -1.71875 -0.796875 -2.421875q-1.078125 -0.953125 -3.203125 -0.953125q-1.984375 0 -2.9375 0.703125q-0.9375 0.6875 -1.390625 2.453125l-2.75 -0.375q0.375 -1.765625 1.234375 -2.84375q0.859375 -1.09375 2.484375 -1.671875q1.625 -0.59375 3.765625 -0.59375q2.125 0 3.453125 0.5q1.328125 0.5 1.953125 1.265625q0.625 0.75 0.875 1.90625q0.140625 0.71875 0.140625 2.59375l0 3.75q0 3.921875 0.171875 4.96875q0.1875 1.03125 0.71875 1.984375l-2.9375 0q-0.4375 -0.875 -0.5625 -2.046875zm-0.234375 -6.28125q-1.53125 0.625 -4.59375 1.0625q-1.734375 0.25 -2.453125 0.5625q-0.71875 0.3125 -1.109375 0.921875q-0.390625 0.59375 -0.390625 1.328125q0 1.125 0.84375 1.875q0.859375 0.75 2.5 0.75q1.625 0 2.890625 -0.703125q1.265625 -0.71875 1.859375 -1.953125q0.453125 -0.953125 0.453125 -2.8125l0 -1.03125zm7.140625 8.328125l0 -22.90625l2.8125 0l0 22.90625l-2.8125 0zm7.046875 6.390625l-0.3125 -2.640625q0.921875 0.25 1.609375 0.25q0.9375 0 1.5 -0.3125q0.5625 -0.3125 0.921875 -0.875q0.265625 -0.421875 0.859375 -2.09375q0.078125 -0.234375 0.25 -0.6875l-6.296875 -16.625l3.03125 0l3.453125 9.609375q0.671875 1.828125 1.203125 3.84375q0.484375 -1.9375 1.15625 -3.78125l3.546875 -9.671875l2.8125 0l-6.3125 16.875q-1.015625 2.734375 -1.578125 3.765625q-0.75 1.390625 -1.71875 2.03125q-0.96875 0.65625 -2.3125 0.65625q-0.8125 0 -1.8125 -0.34375zm15.0 -11.34375l2.78125 -0.4375q0.234375 1.671875 1.296875 2.5625q1.078125 0.890625 3.0 0.890625q1.9375 0 2.875 -0.78125q0.9375 -0.796875 0.9375 -1.859375q0 -0.953125 -0.828125 -1.5q-0.578125 -0.375 -2.875 -0.953125q-3.09375 -0.78125 -4.296875 -1.34375q-1.1875 -0.578125 -1.8125 -1.578125q-0.609375 -1.015625 -0.609375 -2.234375q0 -1.109375 0.5 -2.046875q0.515625 -0.953125 1.390625 -1.578125q0.65625 -0.484375 1.78125 -0.8125q1.140625 -0.34375 2.4375 -0.34375q1.953125 0 3.421875 0.5625q1.484375 0.5625 2.1875 1.53125q0.703125 0.953125 0.96875 2.5625l-2.75 0.375q-0.1875 -1.28125 -1.09375 -2.0q-0.890625 -0.71875 -2.53125 -0.71875q-1.9375 0 -2.765625 0.640625q-0.828125 0.640625 -0.828125 1.5q0 0.546875 0.34375 0.984375q0.34375 0.453125 1.078125 0.75q0.421875 0.15625 2.484375 0.71875q2.984375 0.796875 4.15625 1.3125q1.1875 0.5 1.859375 1.46875q0.671875 0.96875 0.671875 2.40625q0 1.40625 -0.828125 2.65625q-0.8125 1.234375 -2.359375 1.921875q-1.546875 0.671875 -3.5 0.671875q-3.234375 0 -4.9375 -1.34375q-1.6875 -1.34375 -2.15625 -3.984375zm17.140625 -14.71875l0 -3.234375l2.8125 0l0 3.234375l-2.8125 0zm0 19.671875l0 -16.59375l2.8125 0l0 16.59375l-2.8125 0zm5.96875 -4.953125l2.78125 -0.4375q0.234375 1.671875 1.296875 2.5625q1.078125 0.890625 3.0 0.890625q1.9375 0 2.875 -0.78125q0.9375 -0.796875 0.9375 -1.859375q0 -0.953125 -0.828125 -1.5q-0.578125 -0.375 -2.875 -0.953125q-3.09375 -0.78125 -4.296875 -1.34375q-1.1875 -0.578125 -1.8125 -1.578125q-0.609375 -1.015625 -0.609375 -2.234375q0 -1.109375 0.5 -2.046875q0.515625 -0.953125 1.390625 -1.578125q0.65625 -0.484375 1.78125 -0.8125q1.140625 -0.34375 2.4375 -0.34375q1.953125 0 3.421875 0.5625q1.484375 0.5625 2.1875 1.53125q0.703125 0.953125 0.96875 2.5625l-2.75 0.375q-0.1875 -1.28125 -1.09375 -2.0q-0.890625 -0.71875 -2.53125 -0.71875q-1.9375 0 -2.765625 0.640625q-0.828125 0.640625 -0.828125 1.5q0 0.546875 0.34375 0.984375q0.34375 0.453125 1.078125 0.75q0.421875 0.15625 2.484375 0.71875q2.984375 0.796875 4.15625 1.3125q1.1875 0.5 1.859375 1.46875q0.671875 0.96875 0.671875 2.40625q0 1.40625 -0.828125 2.65625q-0.8125 1.234375 -2.359375 1.921875q-1.546875 0.671875 -3.5 0.671875q-3.234375 0 -4.9375 -1.34375q-1.6875 -1.34375 -2.15625 -3.984375zm15.015625 5.34375l6.640625 -23.6875l2.25 0l-6.625 23.6875l-2.265625 0z" fill-rule="nonzero"/><path fill="#f3f3f3" d="m288.70166 389.67145l0 -22.90625l4.5625 0l5.421875 16.21875q0.75 2.265625 1.09375 3.390625q0.390625 -1.25 1.21875 -3.671875l5.484375 -15.9375l4.078125 0l0 22.90625l-2.921875 0l0 -19.171875l-6.65625 19.171875l-2.734375 0l-6.625 -19.5l0 19.5l-2.921875 0zm25.34375 -8.296875q0 -4.609375 2.5625 -6.828125q2.140625 -1.84375 5.21875 -1.84375q3.421875 0 5.59375 2.25q2.171875 2.234375 2.171875 6.1875q0 3.203125 -0.96875 5.046875q-0.953125 1.828125 -2.796875 2.84375q-1.828125 1.015625 -4.0 1.015625q-3.484375 0 -5.640625 -2.234375q-2.140625 -2.234375 -2.140625 -6.4375zm2.890625 0q0 3.1875 1.390625 4.78125q1.390625 1.578125 3.5 1.578125q2.09375 0 3.484375 -1.59375q1.390625 -1.59375 1.390625 -4.859375q0 -3.078125 -1.40625 -4.65625q-1.390625 -1.59375 -3.46875 -1.59375q-2.109375 0 -3.5 1.578125q-1.390625 1.578125 -1.390625 4.765625zm26.71875 8.296875l0 -2.09375q-1.578125 2.46875 -4.640625 2.46875q-1.984375 0 -3.65625 -1.09375q-1.65625 -1.09375 -2.578125 -3.046875q-0.90625 -1.96875 -0.90625 -4.515625q0 -2.484375 0.828125 -4.5q0.828125 -2.03125 2.484375 -3.109375q1.65625 -1.078125 3.703125 -1.078125q1.5 0 2.671875 0.640625q1.171875 0.625 1.90625 1.640625l0 -8.21875l2.796875 0l0 22.90625l-2.609375 0zm-8.890625 -8.28125q0 3.1875 1.34375 4.765625q1.34375 1.578125 3.171875 1.578125q1.84375 0 3.125 -1.5q1.296875 -1.515625 1.296875 -4.609375q0 -3.40625 -1.3125 -5.0q-1.3125 -1.59375 -3.234375 -1.59375q-1.875 0 -3.140625 1.53125q-1.25 1.53125 -1.25 4.828125zm27.28125 2.9375l2.90625 0.359375q-0.6875 2.546875 -2.546875 3.953125q-1.859375 1.40625 -4.75 1.40625q-3.640625 0 -5.78125 -2.234375q-2.125 -2.25 -2.125 -6.296875q0 -4.1875 2.15625 -6.5q2.15625 -2.3125 5.59375 -2.3125q3.328125 0 5.4375 2.265625q2.109375 2.265625 2.109375 6.375q0 0.25 -0.015625 0.75l-12.375 0q0.15625 2.734375 1.546875 4.1875q1.390625 1.453125 3.46875 1.453125q1.546875 0 2.640625 -0.8125q1.09375 -0.8125 1.734375 -2.59375zm-9.234375 -4.546875l9.265625 0q-0.1875 -2.09375 -1.0625 -3.140625q-1.34375 -1.625 -3.484375 -1.625q-1.9375 0 -3.265625 1.296875q-1.3125 1.296875 -1.453125 3.46875zm15.609375 9.890625l0 -22.90625l2.8125 0l0 22.90625l-2.8125 0zm7.109375 0l0 -22.90625l2.8125 0l0 22.90625l-2.8125 0zm7.1875 -19.671875l0 -3.234375l2.8125 0l0 3.234375l-2.8125 0zm0 19.671875l0 -16.59375l2.8125 0l0 16.59375l-2.8125 0zm7.09375 0l0 -16.59375l2.53125 0l0 2.359375q1.828125 -2.734375 5.28125 -2.734375q1.5 0 2.75 0.546875q1.265625 0.53125 1.890625 1.40625q0.625 0.875 0.875 2.078125q0.15625 0.78125 0.15625 2.734375l0 10.203125l-2.8125 0l0 -10.09375q0 -1.71875 -0.328125 -2.5625q-0.328125 -0.859375 -1.171875 -1.359375q-0.828125 -0.515625 -1.953125 -0.515625q-1.796875 0 -3.109375 1.140625q-1.296875 1.140625 -1.296875 4.328125l0 9.0625l-2.8125 0zm17.28125 1.375l2.734375 0.40625q0.171875 1.265625 0.953125 1.84375q1.046875 0.78125 2.859375 0.78125q1.953125 0 3.015625 -0.78125q1.0625 -0.78125 1.4375 -2.1875q0.21875 -0.859375 0.203125 -3.609375q-1.84375 2.171875 -4.59375 2.171875q-3.421875 0 -5.296875 -2.46875q-1.875 -2.46875 -1.875 -5.921875q0 -2.375 0.859375 -4.375q0.859375 -2.015625 2.484375 -3.109375q1.640625 -1.09375 3.84375 -1.09375q2.9375 0 4.84375 2.375l0 -2.0l2.59375 0l0 14.34375q0 3.875 -0.796875 5.484375q-0.78125 1.625 -2.5 2.5625q-1.703125 0.9375 -4.203125 0.9375q-2.96875 0 -4.796875 -1.34375q-1.828125 -1.328125 -1.765625 -4.015625zm2.328125 -9.96875q0 3.265625 1.296875 4.765625q1.296875 1.5 3.25 1.5q1.9375 0 3.25 -1.484375q1.3125 -1.5 1.3125 -4.6875q0 -3.046875 -1.359375 -4.59375q-1.34375 -1.546875 -3.25 -1.546875q-1.875 0 -3.1875 1.53125q-1.3125 1.515625 -1.3125 4.515625z" fill-rule="nonzero"/><path fill="#008abc" d="m99.656166 527.36743l218.01575 0l0 55.275635l-218.01575 0z" fill-rule="evenodd"/><path fill="#f3f3f3" d="m152.59373 567.08746l0 -22.90625l15.453125 0l0 2.703125l-12.421875 0l0 7.09375l10.75 0l0 2.703125l-10.75 0l0 10.40625l-3.03125 0zm19.046875 -19.671875l0 -3.234375l2.8125 0l0 3.234375l-2.8125 0zm0 19.671875l0 -16.59375l2.8125 0l0 16.59375l-2.8125 0zm6.578125 1.375l2.734375 0.40625q0.171875 1.265625 0.953125 1.84375q1.046875 0.78125 2.859375 0.78125q1.953125 0 3.015625 -0.78125q1.0625 -0.78125 1.4375 -2.1875q0.21875 -0.859375 0.203125 -3.609375q-1.84375 2.171875 -4.59375 2.171875q-3.421875 0 -5.296875 -2.46875q-1.875 -2.46875 -1.875 -5.921875q0 -2.375 0.859375 -4.375q0.859375 -2.015625 2.484375 -3.109375q1.640625 -1.09375 3.84375 -1.09375q2.9375 0 4.84375 2.375l0 -2.0l2.59375 0l0 14.34375q0 3.875 -0.796875 5.484375q-0.78125 1.625 -2.5 2.5625q-1.703125 0.9375 -4.203125 0.9375q-2.96875 0 -4.796875 -1.34375q-1.828125 -1.328125 -1.765625 -4.015625zm2.328125 -9.96875q0 3.265625 1.296875 4.765625q1.296875 1.5 3.25 1.5q1.9375 0 3.25 -1.484375q1.3125 -1.5 1.3125 -4.6875q0 -3.046875 -1.359375 -4.59375q-1.34375 -1.546875 -3.25 -1.546875q-1.875 0 -3.1875 1.53125q-1.3125 1.515625 -1.3125 4.515625zm26.859375 8.59375l0 -2.4375q-1.9375 2.8125 -5.265625 2.8125q-1.46875 0 -2.75 -0.5625q-1.265625 -0.5625 -1.890625 -1.40625q-0.609375 -0.859375 -0.859375 -2.09375q-0.171875 -0.828125 -0.171875 -2.625l0 -10.28125l2.8125 0l0 9.203125q0 2.203125 0.171875 2.96875q0.265625 1.109375 1.125 1.75q0.859375 0.625 2.125 0.625q1.265625 0 2.375 -0.640625q1.109375 -0.65625 1.5625 -1.765625q0.46875 -1.125 0.46875 -3.25l0 -8.890625l2.8125 0l0 16.59375l-2.515625 0zm6.890625 0l0 -16.59375l2.53125 0l0 2.515625q0.96875 -1.765625 1.78125 -2.328125q0.828125 -0.5625 1.8125 -0.5625q1.421875 0 2.890625 0.90625l-0.96875 2.609375q-1.03125 -0.609375 -2.0625 -0.609375q-0.921875 0 -1.65625 0.5625q-0.734375 0.546875 -1.046875 1.53125q-0.46875 1.5 -0.46875 3.28125l0 8.6875l-2.8125 0zm22.046875 -5.34375l2.90625 0.359375q-0.6875 2.546875 -2.546875 3.953125q-1.859375 1.40625 -4.75 1.40625q-3.640625 0 -5.78125 -2.234375q-2.125 -2.25 -2.125 -6.296875q0 -4.1875 2.15625 -6.5q2.15625 -2.3125 5.59375 -2.3125q3.328125 0 5.4375 2.265625q2.109375 2.265625 2.109375 6.375q0 0.25 -0.015625 0.75l-12.375 0q0.15625 2.734375 1.546875 4.1875q1.390625 1.453125 3.46875 1.453125q1.546875 0 2.640625 -0.8125q1.09375 -0.8125 1.734375 -2.59375zm-9.234375 -4.546875l9.265625 0q-0.1875 -2.09375 -1.0625 -3.140625q-1.34375 -1.625 -3.484375 -1.625q-1.9375 0 -3.265625 1.296875q-1.3125 1.296875 -1.453125 3.46875zm34.374985 9.890625l-2.8125 0l0 -17.921875q-1.015625 0.96875 -2.6718597 1.9375q-1.640625 0.96875 -2.953125 1.453125l0 -2.71875q2.359375 -1.109375 4.1249847 -2.6875q1.765625 -1.578125 2.5 -3.0625l1.8125 0l0 23.0z" fill-rule="nonzero"/><path fill="#008abc" d="m370.99213 527.36743l218.01575 0l0 55.275635l-218.01575 0z" fill-rule="evenodd"/><path fill="#f3f3f3" d="m423.9297 567.08746l0 -22.90625l15.453125 0l0 2.703125l-12.421875 0l0 7.09375l10.75 0l0 2.703125l-10.75 0l0 10.40625l-3.03125 0zm19.046875 -19.671875l0 -3.234375l2.8125 0l0 3.234375l-2.8125 0zm0 19.671875l0 -16.59375l2.8125 0l0 16.59375l-2.8125 0zm6.578125 1.375l2.734375 0.40625q0.171875 1.265625 0.953125 1.84375q1.046875 0.78125 2.859375 0.78125q1.953125 0 3.015625 -0.78125q1.0625 -0.78125 1.4375 -2.1875q0.21875 -0.859375 0.203125 -3.609375q-1.84375 2.171875 -4.59375 2.171875q-3.421875 0 -5.296875 -2.46875q-1.875 -2.46875 -1.875 -5.921875q0 -2.375 0.859375 -4.375q0.859375 -2.015625 2.484375 -3.109375q1.640625 -1.09375 3.84375 -1.09375q2.9375 0 4.84375 2.375l0 -2.0l2.59375 0l0 14.34375q0 3.875 -0.796875 5.484375q-0.78125 1.625 -2.5 2.5625q-1.703125 0.9375 -4.203125 0.9375q-2.96875 0 -4.796875 -1.34375q-1.828125 -1.328125 -1.765625 -4.015625zm2.328125 -9.96875q0 3.265625 1.296875 4.765625q1.296875 1.5 3.25 1.5q1.9375 0 3.25 -1.484375q1.3125 -1.5 1.3125 -4.6875q0 -3.046875 -1.359375 -4.59375q-1.34375 -1.546875 -3.25 -1.546875q-1.875 0 -3.1875 1.53125q-1.3125 1.515625 -1.3125 4.515625zm26.859375 8.59375l0 -2.4375q-1.9375 2.8125 -5.265625 2.8125q-1.46875 0 -2.75 -0.5625q-1.265625 -0.5625 -1.890625 -1.40625q-0.609375 -0.859375 -0.859375 -2.09375q-0.171875 -0.828125 -0.171875 -2.625l0 -10.28125l2.8125 0l0 9.203125q0 2.203125 0.171875 2.96875q0.265625 1.109375 1.125 1.75q0.859375 0.625 2.125 0.625q1.265625 0 2.375 -0.640625q1.109375 -0.65625 1.5625 -1.765625q0.46875 -1.125 0.46875 -3.25l0 -8.890625l2.8125 0l0 16.59375l-2.515625 0zm6.890625 0l0 -16.59375l2.53125 0l0 2.515625q0.96875 -1.765625 1.78125 -2.328125q0.828125 -0.5625 1.8125 -0.5625q1.421875 0 2.890625 0.90625l-0.96875 2.609375q-1.03125 -0.609375 -2.0625 -0.609375q-0.921875 0 -1.65625 0.5625q-0.734375 0.546875 -1.046875 1.53125q-0.46875 1.5 -0.46875 3.28125l0 8.6875l-2.8125 0zm22.046875 -5.34375l2.90625 0.359375q-0.6875 2.546875 -2.546875 3.953125q-1.859375 1.40625 -4.75 1.40625q-3.640625 0 -5.78125 -2.234375q-2.125 -2.25 -2.125 -6.296875q0 -4.1875 2.15625 -6.5q2.15625 -2.3125 5.59375 -2.3125q3.328125 0 5.4375 2.265625q2.109375 2.265625 2.109375 6.375q0 0.25 -0.015625 0.75l-12.375 0q0.15625 2.734375 1.546875 4.1875q1.390625 1.453125 3.46875 1.453125q1.546875 0 2.640625 -0.8125q1.09375 -0.8125 1.734375 -2.59375zm-9.234375 -4.546875l9.265625 0q-0.1875 -2.09375 -1.0625 -3.140625q-1.34375 -1.625 -3.484375 -1.625q-1.9375 0 -3.265625 1.296875q-1.3125 1.296875 -1.453125 3.46875zm38.5625 7.1875l0 2.703125l-15.140625 0q-0.03125 -1.015625 0.328125 -1.953125q0.578125 -1.546875 1.84375 -3.046875q1.28125 -1.5 3.6875 -3.46875q3.734375 -3.0625 5.046875 -4.84375q1.3125 -1.796875 1.3125 -3.390625q0 -1.671875 -1.203125 -2.8125q-1.1875 -1.15625 -3.109375 -1.15625q-2.03125 0 -3.25 1.21875q-1.21875 1.21875 -1.234375 3.375l-2.890625 -0.296875q0.296875 -3.234375 2.234375 -4.921875q1.9375 -1.703125 5.203125 -1.703125q3.296875 0 5.21875 1.828125q1.921875 1.828125 1.921875 4.53125q0 1.375 -0.5625 2.703125q-0.5625 1.328125 -1.875 2.796875q-1.296875 1.46875 -4.328125 4.03125q-2.53125 2.125 -3.25 2.890625q-0.71875 0.75 -1.1875 1.515625l11.234375 0z" fill-rule="nonzero"/><path fill="#008abc" d="m642.32806 527.36743l218.01575 0l0 55.275635l-218.01575 0z" fill-rule="evenodd"/><path fill="#ffffff" d="m695.2656 567.08746l0 -22.90625l15.453125 0l0 2.703125l-12.421875 0l0 7.09375l10.75 0l0 2.703125l-10.75 0l0 10.40625l-3.03125 0zm19.046875 -19.671875l0 -3.234375l2.8125 0l0 3.234375l-2.8125 0zm0 19.671875l0 -16.59375l2.8125 0l0 16.59375l-2.8125 0zm6.578125 1.375l2.734375 0.40625q0.171875 1.265625 0.953125 1.84375q1.046875 0.78125 2.859375 0.78125q1.953125 0 3.015625 -0.78125q1.0625 -0.78125 1.4375 -2.1875q0.21875 -0.859375 0.203125 -3.609375q-1.84375 2.171875 -4.59375 2.171875q-3.421875 0 -5.296875 -2.46875q-1.875 -2.46875 -1.875 -5.921875q0 -2.375 0.859375 -4.375q0.859375 -2.015625 2.484375 -3.109375q1.640625 -1.09375 3.84375 -1.09375q2.9375 0 4.84375 2.375l0 -2.0l2.59375 0l0 14.34375q0 3.875 -0.796875 5.484375q-0.78125 1.625 -2.5 2.5625q-1.703125 0.9375 -4.203125 0.9375q-2.96875 0 -4.796875 -1.34375q-1.828125 -1.328125 -1.765625 -4.015625zm2.328125 -9.96875q0 3.265625 1.296875 4.765625q1.296875 1.5 3.25 1.5q1.9375 0 3.25 -1.484375q1.3125 -1.5 1.3125 -4.6875q0 -3.046875 -1.359375 -4.59375q-1.34375 -1.546875 -3.25 -1.546875q-1.875 0 -3.1875 1.53125q-1.3125 1.515625 -1.3125 4.515625zm26.859375 8.59375l0 -2.4375q-1.9375 2.8125 -5.265625 2.8125q-1.46875 0 -2.75 -0.5625q-1.265625 -0.5625 -1.890625 -1.40625q-0.609375 -0.859375 -0.859375 -2.09375q-0.171875 -0.828125 -0.171875 -2.625l0 -10.28125l2.8125 0l0 9.203125q0 2.203125 0.171875 2.96875q0.265625 1.109375 1.125 1.75q0.859375 0.625 2.125 0.625q1.265625 0 2.375 -0.640625q1.109375 -0.65625 1.5625 -1.765625q0.46875 -1.125 0.46875 -3.25l0 -8.890625l2.8125 0l0 16.59375l-2.515625 0zm6.890625 0l0 -16.59375l2.53125 0l0 2.515625q0.96875 -1.765625 1.78125 -2.328125q0.828125 -0.5625 1.8125 -0.5625q1.421875 0 2.890625 0.90625l-0.96875 2.609375q-1.03125 -0.609375 -2.0625 -0.609375q-0.921875 0 -1.65625 0.5625q-0.734375 0.546875 -1.046875 1.53125q-0.46875 1.5 -0.46875 3.28125l0 8.6875l-2.8125 0zm22.046875 -5.34375l2.90625 0.359375q-0.6875 2.546875 -2.546875 3.953125q-1.859375 1.40625 -4.75 1.40625q-3.640625 0 -5.78125 -2.234375q-2.125 -2.25 -2.125 -6.296875q0 -4.1875 2.15625 -6.5q2.15625 -2.3125 5.59375 -2.3125q3.328125 0 5.4375 2.265625q2.109375 2.265625 2.109375 6.375q0 0.25 -0.015625 0.75l-12.375 0q0.15625 2.734375 1.546875 4.1875q1.390625 1.453125 3.46875 1.453125q1.546875 0 2.640625 -0.8125q1.09375 -0.8125 1.734375 -2.59375zm-9.234375 -4.546875l9.265625 0q-0.1875 -2.09375 -1.0625 -3.140625q-1.34375 -1.625 -3.484375 -1.625q-1.9375 0 -3.265625 1.296875q-1.3125 1.296875 -1.453125 3.46875zm23.796875 3.84375l2.8125 -0.375q0.484375 2.390625 1.640625 3.453125q1.171875 1.046875 2.84375 1.046875q1.984375 0 3.34375 -1.375q1.375 -1.375 1.375 -3.40625q0 -1.9375 -1.265625 -3.1875q-1.265625 -1.265625 -3.21875 -1.265625q-0.796875 0 -1.984375 0.3125l0.3125 -2.46875q0.28125 0.03125 0.453125 0.03125q1.796875 0 3.234375 -0.9375q1.4375 -0.9375 1.4375 -2.890625q0 -1.546875 -1.046875 -2.5625q-1.046875 -1.015625 -2.703125 -1.015625q-1.640625 0 -2.734375 1.03125q-1.09375 1.03125 -1.40625 3.09375l-2.8125 -0.5q0.515625 -2.828125 2.34375 -4.375q1.828125 -1.5625 4.546875 -1.5625q1.875 0 3.453125 0.8125q1.578125 0.796875 2.40625 2.1875q0.84375 1.390625 0.84375 2.953125q0 1.484375 -0.796875 2.703125q-0.796875 1.21875 -2.359375 1.9375q2.03125 0.46875 3.15625 1.953125q1.125 1.46875 1.125 3.6875q0 3.0 -2.1875 5.09375q-2.1875 2.078125 -5.53125 2.078125q-3.015625 0 -5.015625 -1.796875q-1.984375 -1.796875 -2.265625 -4.65625z" fill-rule="nonzero"/><path fill="#f1c232" d="m406.3937 59.372864l0 0c0 -4.447357 3.6052856 -8.052654 8.052643 -8.052654l131.1073 0c2.1356812 0 4.183899 0.84840393 5.694092 2.35857c1.5101318 1.5101624 2.3585815 3.5583878 2.3585815 5.694084l0 32.209656c0 4.447357 -3.6053467 8.05265 -8.052673 8.05265l-131.1073 0c-4.447357 0 -8.052643 -3.6052933 -8.052643 -8.05265z" fill-rule="evenodd"/><path fill="#000000" d="m425.78763 85.07769l0 -19.078125l8.46875 0q2.546875 0 3.875 0.515625q1.328125 0.515625 2.109375 1.8125q0.796875 1.296875 0.796875 2.875q0 2.03125 -1.3125 3.421875q-1.3125 1.390625 -4.0625 1.765625q1.015625 0.484375 1.53125 0.953125q1.109375 1.015625 2.09375 2.546875l3.3125 5.1875l-3.171875 0l-2.515625 -3.96875q-1.109375 -1.71875 -1.828125 -2.625q-0.71875 -0.921875 -1.28125 -1.28125q-0.5625 -0.359375 -1.15625 -0.5q-0.421875 -0.09375 -1.40625 -0.09375l-2.921875 0l0 8.46875l-2.53125 0zm2.53125 -10.65625l5.421875 0q1.734375 0 2.703125 -0.359375q0.984375 -0.359375 1.484375 -1.140625q0.515625 -0.796875 0.515625 -1.71875q0 -1.359375 -0.984375 -2.21875q-0.984375 -0.875 -3.109375 -0.875l-6.03125 0l0 6.3125zm25.406525 8.953125q-1.3125 1.109375 -2.515625 1.5625q-1.203125 0.453125 -2.578125 0.453125q-2.28125 0 -3.5 -1.109375q-1.21875 -1.109375 -1.21875 -2.84375q0 -1.015625 0.453125 -1.859375q0.46875 -0.84375 1.21875 -1.34375q0.75 -0.515625 1.6875 -0.765625q0.6875 -0.1875 2.078125 -0.359375q2.828125 -0.328125 4.171875 -0.796875q0.015625 -0.484375 0.015625 -0.625q0 -1.421875 -0.65625 -2.015625q-0.90625 -0.796875 -2.671875 -0.796875q-1.65625 0 -2.453125 0.59375q-0.78125 0.578125 -1.15625 2.046875l-2.296875 -0.3125q0.3125 -1.46875 1.03125 -2.375q0.71875 -0.90625 2.0625 -1.390625q1.359375 -0.5 3.140625 -0.5q1.78125 0 2.875 0.421875q1.109375 0.421875 1.625 1.046875q0.53125 0.625 0.734375 1.59375q0.125 0.59375 0.125 2.15625l0 3.125q0 3.265625 0.140625 4.140625q0.15625 0.859375 0.59375 1.65625l-2.4375 0q-0.375 -0.734375 -0.46875 -1.703125zm-0.203125 -5.234375q-1.265625 0.515625 -3.828125 0.890625q-1.4375 0.203125 -2.046875 0.46875q-0.59375 0.25 -0.921875 0.75q-0.3125 0.5 -0.3125 1.125q0 0.9375 0.703125 1.5625q0.703125 0.625 2.078125 0.625q1.34375 0 2.390625 -0.59375q1.0625 -0.59375 1.5625 -1.625q0.375 -0.796875 0.375 -2.34375l0 -0.859375zm8.559326 6.9375l-4.234375 -13.828125l2.421875 0l2.203125 7.984375l0.8125 2.96875q0.0625 -0.21875 0.71875 -2.859375l2.203125 -8.09375l2.40625 0l2.0625 8.015625l0.6875 2.65625l0.796875 -2.671875l2.375 -8.0l2.28125 0l-4.328125 13.828125l-2.4375 0l-2.1875 -8.28125l-0.546875 -2.359375l-2.796875 10.640625l-2.4375 0zm33.0625 0l0 -1.75q-1.3125 2.0625 -3.859375 2.0625q-1.65625 0 -3.046875 -0.90625q-1.375 -0.921875 -2.140625 -2.546875q-0.765625 -1.640625 -0.765625 -3.75q0 -2.078125 0.6875 -3.765625q0.703125 -1.6875 2.078125 -2.578125q1.375 -0.90625 3.078125 -0.90625q1.25 0 2.21875 0.53125q0.984375 0.53125 1.59375 1.375l0 -6.84375l2.34375 0l0 19.078125l-2.1875 0zm-7.40625 -6.890625q0 2.640625 1.125 3.96875q1.125 1.3125 2.640625 1.3125q1.53125 0 2.609375 -1.25q1.078125 -1.265625 1.078125 -3.84375q0 -2.84375 -1.09375 -4.171875q-1.09375 -1.328125 -2.703125 -1.328125q-1.546875 0 -2.609375 1.28125q-1.046875 1.28125 -1.046875 4.03125zm22.29367 5.1875q-1.3125 1.109375 -2.515625 1.5625q-1.203125 0.453125 -2.578125 0.453125q-2.28125 0 -3.5 -1.109375q-1.21875 -1.109375 -1.21875 -2.84375q0 -1.015625 0.453125 -1.859375q0.46875 -0.84375 1.21875 -1.34375q0.75 -0.515625 1.6875 -0.765625q0.6875 -0.1875 2.078125 -0.359375q2.828125 -0.328125 4.171875 -0.796875q0.015625 -0.484375 0.015625 -0.625q0 -1.421875 -0.65625 -2.015625q-0.90625 -0.796875 -2.671875 -0.796875q-1.65625 0 -2.453125 0.59375q-0.78125 0.578125 -1.15625 2.046875l-2.296875 -0.3125q0.3125 -1.46875 1.03125 -2.375q0.71875 -0.90625 2.0625 -1.390625q1.359375 -0.5 3.140625 -0.5q1.78125 0 2.875 0.421875q1.109375 0.421875 1.625 1.046875q0.53125 0.625 0.7344055 1.59375q0.125 0.59375 0.125 2.15625l0 3.125q0 3.265625 0.140625 4.140625q0.15625 0.859375 0.59375 1.65625l-2.4375305 0q-0.375 -0.734375 -0.46875 -1.703125zm-0.203125 -5.234375q-1.265625 0.515625 -3.828125 0.890625q-1.4375 0.203125 -2.046875 0.46875q-0.59375 0.25 -0.921875 0.75q-0.3125 0.5 -0.3125 1.125q0 0.9375 0.703125 1.5625q0.703125 0.625 2.078125 0.625q1.34375 0 2.390625 -0.59375q1.0625 -0.59375 1.5625 -1.625q0.375 -0.796875 0.375 -2.34375l0 -0.859375zm11.121796 4.84375l0.328125 2.0625q-0.984375 0.21875 -1.765625 0.21875q-1.265625 0 -1.96875 -0.40625q-0.703125 -0.40625 -1.0 -1.0625q-0.28125 -0.65625 -0.28125 -2.765625l0 -7.953125l-1.71875 0l0 -1.828125l1.71875 0l0 -3.421875l2.328125 -1.40625l0 4.828125l2.359375 0l0 1.828125l-2.359375 0l0 8.078125q0 1.0 0.125 1.296875q0.125 0.28125 0.40625 0.453125q0.28125 0.171875 0.796875 0.171875q0.390625 0 1.03125 -0.09375zm11.312256 0.390625q-1.3125 1.109375 -2.515625 1.5625q-1.203125 0.453125 -2.578125 0.453125q-2.28125 0 -3.5 -1.109375q-1.21875 -1.109375 -1.21875 -2.84375q0 -1.015625 0.453125 -1.859375q0.46875 -0.84375 1.21875 -1.34375q0.75 -0.515625 1.6875 -0.765625q0.6875 -0.1875 2.078125 -0.359375q2.828125 -0.328125 4.171875 -0.796875q0.015625 -0.484375 0.015625 -0.625q0 -1.421875 -0.65625 -2.015625q-0.90625 -0.796875 -2.671875 -0.796875q-1.65625 0 -2.453125 0.59375q-0.78125 0.578125 -1.15625 2.046875l-2.296875 -0.3125q0.3125 -1.46875 1.03125 -2.375q0.71875 -0.90625 2.0625 -1.390625q1.359375 -0.5 3.140625 -0.5q1.78125 0 2.875 0.421875q1.109375 0.421875 1.625 1.046875q0.53125 0.625 0.734375 1.59375q0.125 0.59375 0.125 2.15625l0 3.125q0 3.265625 0.140625 4.140625q0.15625 0.859375 0.59375 1.65625l-2.4375 0q-0.375 -0.734375 -0.46875 -1.703125zm-0.203125 -5.234375q-1.265625 0.515625 -3.828125 0.890625q-1.4375 0.203125 -2.046875 0.46875q-0.59375 0.25 -0.921875 0.75q-0.3125 0.5 -0.3125 1.125q0 0.9375 0.703125 1.5625q0.703125 0.625 2.078125 0.625q1.34375 0 2.390625 -0.59375q1.0625 -0.59375 1.5625 -1.625q0.375 -0.796875 0.375 -2.34375l0 -0.859375z" fill-rule="nonzero"/><path fill="#f1c232" d="m366.15747 225.92017l0 0c0 -6.2419434 5.0601196 -11.302063 11.302063 -11.302063l205.08093 0c2.9974976 0 5.8721924 1.1907501 7.9917603 3.3103027c2.1195679 2.1195526 3.3103027 4.994278 3.3103027 7.9917603l0 45.20691c0 6.2419434 -5.0601196 11.302063 -11.302063 11.302063l-205.08093 0c-6.2419434 0 -11.302063 -5.0601196 -11.302063 -11.302063z" fill-rule="evenodd"/><path fill="#000000" d="m395.39062 242.12363l0 -19.078125l7.1875 0q1.90625 0 2.90625 0.171875q1.40625 0.234375 2.359375 0.90625q0.953125 0.65625 1.53125 1.84375q0.578125 1.171875 0.578125 2.59375q0 2.4375 -1.5625 4.125q-1.546875 1.6875 -5.59375 1.6875l-4.890625 0l0 7.75l-2.515625 0zm2.515625 -10.015625l4.9375 0q2.453125 0 3.46875 -0.90625q1.03125 -0.90625 1.03125 -2.5625q0 -1.203125 -0.609375 -2.046875q-0.59375 -0.859375 -1.59375 -1.125q-0.625 -0.171875 -2.34375 -0.171875l-4.890625 0l0 6.8125zm14.9357605 10.015625l0 -13.828125l2.109375 0l0 2.09375q0.796875 -1.46875 1.484375 -1.9375q0.6875 -0.46875 1.5 -0.46875q1.1875 0 2.40625 0.765625l-0.796875 2.171875q-0.859375 -0.515625 -1.71875 -0.515625q-0.765625 0 -1.390625 0.46875q-0.609375 0.453125 -0.859375 1.28125q-0.390625 1.25 -0.390625 2.734375l0 7.234375l-2.34375 0zm18.361115 -4.453125l2.421875 0.296875q-0.578125 2.125 -2.125 3.296875q-1.546875 1.171875 -3.953125 1.171875q-3.03125 0 -4.8125 -1.859375q-1.78125 -1.875 -1.78125 -5.25q0 -3.484375 1.796875 -5.40625q1.796875 -1.9375 4.671875 -1.9375q2.765625 0 4.515625 1.890625q1.765625 1.890625 1.765625 5.3125q0 0.203125 -0.015625 0.625l-10.3125 0q0.140625 2.28125 1.296875 3.5q1.15625 1.203125 2.890625 1.203125q1.28125 0 2.1875 -0.671875q0.921875 -0.6875 1.453125 -2.171875zm-7.6875 -3.78125l7.71875 0q-0.15625 -1.75 -0.890625 -2.625q-1.125 -1.34375 -2.90625 -1.34375q-1.609375 0 -2.71875 1.078125q-1.09375 1.078125 -1.203125 2.890625zm12.137451 2.5l0 -2.34375l7.203125 0l0 2.34375l-7.203125 0zm9.7829895 11.03125l0 -19.125l2.140625 0l0 1.796875q0.75 -1.046875 1.703125 -1.578125q0.953125 -0.53125 2.3125 -0.53125q1.765625 0 3.109375 0.921875q1.359375 0.90625 2.046875 2.5625q0.6875 1.65625 0.6875 3.640625q0 2.125 -0.765625 3.828125q-0.75 1.6875 -2.203125 2.59375q-1.453125 0.90625 -3.046875 0.90625q-1.171875 0 -2.109375 -0.484375q-0.921875 -0.5 -1.53125 -1.265625l0 6.734375l-2.34375 0zm2.125 -12.125q0 2.65625 1.078125 3.9375q1.09375 1.28125 2.625 1.28125q1.5625 0 2.671875 -1.3125q1.109375 -1.328125 1.109375 -4.109375q0 -2.640625 -1.09375 -3.953125q-1.078125 -1.3125 -2.59375 -1.3125q-1.484375 0 -2.640625 1.40625q-1.15625 1.390625 -1.15625 4.0625zm12.684296 6.828125l0 -13.828125l2.109375 0l0 2.09375q0.796875 -1.46875 1.484375 -1.9375q0.6875 -0.46875 1.5 -0.46875q1.1875 0 2.40625 0.765625l-0.796875 2.171875q-0.859375 -0.515625 -1.71875 -0.515625q-0.765625 0 -1.390625 0.46875q-0.609375 0.453125 -0.859375 1.28125q-0.390625 1.25 -0.390625 2.734375l0 7.234375l-2.34375 0zm8.0329895 -6.90625q0 -3.84375 2.125 -5.6875q1.78125 -1.546875 4.34375 -1.546875q2.859375 0 4.65625 1.875q1.8125 1.859375 1.8125 5.15625q0 2.671875 -0.796875 4.203125q-0.796875 1.53125 -2.328125 2.375q-1.53125 0.84375 -3.34375 0.84375q-2.890625 0 -4.6875 -1.859375q-1.78125 -1.859375 -1.78125 -5.359375zm2.40625 0q0 2.65625 1.15625 3.984375q1.15625 1.3125 2.90625 1.3125q1.75 0 2.90625 -1.328125q1.15625 -1.328125 1.15625 -4.046875q0 -2.5625 -1.171875 -3.890625q-1.15625 -1.328125 -2.890625 -1.328125q-1.75 0 -2.90625 1.328125q-1.15625 1.3125 -1.15625 3.96875zm22.309326 1.84375l2.296875 0.296875q-0.375 2.390625 -1.9375 3.734375q-1.546875 1.34375 -3.8125 1.34375q-2.84375 0 -4.5625 -1.84375q-1.71875 -1.859375 -1.71875 -5.328125q0 -2.234375 0.734375 -3.90625q0.75 -1.6875 2.265625 -2.53125q1.515625 -0.84375 3.296875 -0.84375q2.25 0 3.671875 1.140625q1.4375 1.140625 1.84375 3.234375l-2.28125 0.359375q-0.328125 -1.390625 -1.15625 -2.09375q-0.8125 -0.703125 -1.984375 -0.703125q-1.78125 0 -2.890625 1.265625q-1.09375 1.265625 -1.09375 4.015625q0 2.78125 1.0625 4.046875q1.0625 1.265625 2.78125 1.265625q1.390625 0 2.3125 -0.84375q0.921875 -0.859375 1.171875 -2.609375zm13.765625 0.609375l2.421875 0.296875q-0.578125 2.125 -2.125 3.296875q-1.546875 1.171875 -3.953125 1.171875q-3.03125 0 -4.8125 -1.859375q-1.78125 -1.875 -1.78125 -5.25q0 -3.484375 1.796875 -5.40625q1.796875 -1.9375 4.671875 -1.9375q2.765625 0 4.515625 1.890625q1.765625 1.890625 1.765625 5.3125q0 0.203125 -0.015625 0.625l-10.3125 0q0.140625 2.28125 1.296875 3.5q1.15625 1.203125 2.890625 1.203125q1.28125 0 2.1875 -0.671875q0.921875 -0.6875 1.453125 -2.171875zm-7.6875 -3.78125l7.71875 0q-0.15625 -1.75 -0.890625 -2.625q-1.125 -1.34375 -2.90625 -1.34375q-1.609375 0 -2.71875 1.078125q-1.09375 1.078125 -1.203125 2.890625zm12.106171 4.109375l2.328125 -0.359375q0.1875 1.390625 1.078125 2.140625q0.890625 0.734375 2.5 0.734375q1.609375 0 2.390625 -0.65625q0.78125 -0.65625 0.78125 -1.546875q0 -0.796875 -0.6875 -1.25q-0.484375 -0.3125 -2.390625 -0.796875q-2.578125 -0.65625 -3.578125 -1.125q-1.0 -0.46875 -1.515625 -1.3125q-0.515625 -0.84375 -0.515625 -1.859375q0 -0.921875 0.421875 -1.703125q0.4375 -0.796875 1.15625 -1.3125q0.546875 -0.40625 1.484375 -0.6875q0.953125 -0.28125 2.03125 -0.28125q1.625 0 2.859375 0.46875q1.234375 0.46875 1.8125 1.28125q0.59375 0.796875 0.8125 2.140625l-2.296875 0.3125q-0.15625 -1.078125 -0.90625 -1.671875q-0.75 -0.59375 -2.109375 -0.59375q-1.609375 0 -2.3125 0.53125q-0.6875 0.53125 -0.6875 1.25q0 0.453125 0.296875 0.8125q0.28125 0.375 0.890625 0.625q0.359375 0.140625 2.078125 0.609375q2.484375 0.65625 3.46875 1.078125q0.984375 0.421875 1.53125 1.234375q0.5625 0.796875 0.5625 2.0q0 1.171875 -0.6875 2.21875q-0.671875 1.03125 -1.96875 1.59375q-1.28125 0.5625 -2.90625 0.5625q-2.703125 0 -4.125 -1.109375q-1.40625 -1.125 -1.796875 -3.328125zm13.328125 0l2.328125 -0.359375q0.1875 1.390625 1.078125 2.140625q0.890625 0.734375 2.5 0.734375q1.609375 0 2.390625 -0.65625q0.78125 -0.65625 0.78125 -1.546875q0 -0.796875 -0.6875 -1.25q-0.484375 -0.3125 -2.390625 -0.796875q-2.578125 -0.65625 -3.578125 -1.125q-1.0 -0.46875 -1.515625 -1.3125q-0.515625 -0.84375 -0.515625 -1.859375q0 -0.921875 0.421875 -1.703125q0.4375 -0.796875 1.15625 -1.3125q0.546875 -0.40625 1.484375 -0.6875q0.953125 -0.28125 2.03125 -0.28125q1.625 0 2.859375 0.46875q1.234375 0.46875 1.8125 1.28125q0.59375 0.796875 0.8125 2.140625l-2.296875 0.3125q-0.15625 -1.078125 -0.90625 -1.671875q-0.75 -0.59375 -2.109375 -0.59375q-1.609375 0 -2.3125 0.53125q-0.6875 0.53125 -0.6875 1.25q0 0.453125 0.296875 0.8125q0.28125 0.375 0.890625 0.625q0.359375 0.140625 2.078125 0.609375q2.484375 0.65625 3.46875 1.078125q0.984375 0.421875 1.53125 1.234375q0.5625 0.796875 0.5625 2.0q0 1.171875 -0.6875 2.21875q-0.671875 1.03125 -1.96875 1.59375q-1.28125 0.5625 -2.90625 0.5625q-2.703125 0 -4.125 -1.109375q-1.40625 -1.125 -1.796875 -3.328125zm23.734375 -0.328125l2.421875 0.296875q-0.578125 2.125 -2.125 3.296875q-1.546875 1.171875 -3.953125 1.171875q-3.03125 0 -4.8125 -1.859375q-1.78125 -1.875 -1.78125 -5.25q0 -3.484375 1.796875 -5.40625q1.796875 -1.9375 4.671875 -1.9375q2.765625 0 4.515625 1.890625q1.765625 1.890625 1.765625 5.3125q0 0.203125 -0.015625 0.625l-10.3125 0q0.140625 2.28125 1.296875 3.5q1.15625 1.203125 2.890625 1.203125q1.28125 0 2.1875 -0.671875q0.921875 -0.6875 1.453125 -2.171875zm-7.6875 -3.78125l7.71875 0q-0.15625 -1.75 -0.890625 -2.625q-1.125 -1.34375 -2.90625 -1.34375q-1.609375 0 -2.71875 1.078125q-1.09375 1.078125 -1.203125 2.890625zm22.012451 8.234375l0 -1.75q-1.3125 2.0625 -3.859375 2.0625q-1.65625 0 -3.046875 -0.90625q-1.375 -0.921875 -2.140625 -2.546875q-0.765625 -1.640625 -0.765625 -3.75q0 -2.078125 0.6875 -3.765625q0.703125 -1.6875 2.078125 -2.578125q1.375 -0.90625 3.078125 -0.90625q1.25 0 2.21875 0.53125q0.984375 0.53125 1.59375 1.375l0 -6.84375l2.34375 0l0 19.078125l-2.1875 0zm-7.40625 -6.890625q0 2.640625 1.125 3.96875q1.125 1.3125 2.640625 1.3125q1.53125 0 2.609375 -1.25q1.078125 -1.265625 1.078125 -3.84375q0 -2.84375 -1.09375 -4.171875q-1.09375 -1.328125 -2.703125 -1.328125q-1.546875 0 -2.609375 1.28125q-1.046875 1.28125 -1.046875 4.03125z" fill-rule="nonzero"/><path fill="#000000" d="m464.77835 274.12363l0 -1.75q-1.3125 2.0625 -3.859375 2.0625q-1.65625 0 -3.046875 -0.90625q-1.375 -0.921875 -2.140625 -2.546875q-0.765625 -1.640625 -0.765625 -3.75q0 -2.078125 0.6875 -3.765625q0.703125 -1.6875 2.078125 -2.578125q1.375 -0.90625 3.078125 -0.90625q1.25 0 2.21875 0.53125q0.984375 0.53125 1.59375 1.375l0 -6.84375l2.34375 0l0 19.078125l-2.1875 0zm-7.40625 -6.890625q0 2.640625 1.125 3.96875q1.125 1.3125 2.640625 1.3125q1.53125 0 2.609375 -1.25q1.078125 -1.265625 1.078125 -3.84375q0 -2.84375 -1.09375 -4.171875q-1.09375 -1.328125 -2.703125 -1.328125q-1.546875 0 -2.609375 1.28125q-1.046875 1.28125 -1.046875 4.03125zm22.293701 5.1875q-1.3125 1.109375 -2.515625 1.5625q-1.203125 0.453125 -2.578125 0.453125q-2.28125 0 -3.5 -1.109375q-1.21875 -1.109375 -1.21875 -2.84375q0 -1.015625 0.453125 -1.859375q0.46875 -0.84375 1.21875 -1.34375q0.75 -0.515625 1.6875 -0.765625q0.6875 -0.1875 2.078125 -0.359375q2.828125 -0.328125 4.171875 -0.796875q0.015625 -0.484375 0.015625 -0.625q0 -1.421875 -0.65625 -2.015625q-0.90625 -0.796875 -2.671875 -0.796875q-1.65625 0 -2.453125 0.59375q-0.78125 0.578125 -1.15625 2.046875l-2.296875 -0.3125q0.3125 -1.46875 1.03125 -2.375q0.71875 -0.90625 2.0625 -1.390625q1.359375 -0.5 3.140625 -0.5q1.78125 0 2.875 0.421875q1.109375 0.421875 1.625 1.046875q0.53125 0.625 0.734375 1.59375q0.125 0.59375 0.125 2.15625l0 3.125q0 3.265625 0.140625 4.140625q0.15625 0.859375 0.59375 1.65625l-2.4375 0q-0.375 -0.734375 -0.46875 -1.703125zm-0.203125 -5.234375q-1.265625 0.515625 -3.828125 0.890625q-1.4375 0.203125 -2.046875 0.46875q-0.59375 0.25 -0.921875 0.75q-0.3125 0.5 -0.3125 1.125q0 0.9375 0.703125 1.5625q0.703125 0.625 2.078125 0.625q1.34375 0 2.390625 -0.59375q1.0625 -0.59375 1.5625 -1.625q0.375 -0.796875 0.375 -2.34375l0 -0.859375zm11.121796 4.84375l0.328125 2.0625q-0.984375 0.21875 -1.765625 0.21875q-1.265625 0 -1.96875 -0.40625q-0.703125 -0.40625 -1.0 -1.0625q-0.28125 -0.65625 -0.28125 -2.765625l0 -7.953125l-1.71875 0l0 -1.828125l1.71875 0l0 -3.421875l2.328125 -1.40625l0 4.828125l2.359375 0l0 1.828125l-2.359375 0l0 8.078125q0 1.0 0.125 1.296875q0.125 0.28125 0.40625 0.453125q0.28125 0.171875 0.796875 0.171875q0.390625 0 1.03125 -0.09375zm11.312225 0.390625q-1.3125 1.109375 -2.515625 1.5625q-1.203125 0.453125 -2.578125 0.453125q-2.28125 0 -3.5 -1.109375q-1.21875 -1.109375 -1.21875 -2.84375q0 -1.015625 0.453125 -1.859375q0.46875 -0.84375 1.21875 -1.34375q0.75 -0.515625 1.6875 -0.765625q0.6875 -0.1875 2.078125 -0.359375q2.828125 -0.328125 4.171875 -0.796875q0.015625 -0.484375 0.015625 -0.625q0 -1.421875 -0.65625 -2.015625q-0.90625 -0.796875 -2.671875 -0.796875q-1.65625 0 -2.453125 0.59375q-0.78125 0.578125 -1.15625 2.046875l-2.296875 -0.3125q0.3125 -1.46875 1.03125 -2.375q0.71875 -0.90625 2.0625 -1.390625q1.359375 -0.5 3.140625 -0.5q1.78125 0 2.875 0.421875q1.109375 0.421875 1.625 1.046875q0.53125 0.625 0.734375 1.59375q0.125 0.59375 0.125 2.15625l0 3.125q0 3.265625 0.140625 4.140625q0.15625 0.859375 0.59375 1.65625l-2.4375 0q-0.375 -0.734375 -0.46875 -1.703125zm-0.203125 -5.234375q-1.265625 0.515625 -3.828125 0.890625q-1.4375 0.203125 -2.046875 0.46875q-0.59375 0.25 -0.921875 0.75q-0.3125 0.5 -0.3125 1.125q0 0.9375 0.703125 1.5625q0.703125 0.625 2.078125 0.625q1.34375 0 2.390625 -0.59375q1.0625 -0.59375 1.5625 -1.625q0.375 -0.796875 0.375 -2.34375l0 -0.859375z" fill-rule="nonzero"/><path fill="#f1c232" d="m281.2047 452.70752l0 0c0 -4.447357 3.6053162 -8.052673 8.052673 -8.052673l131.10727 0c2.1357117 0 4.1839294 0.8484192 5.694092 2.3585815c1.5101624 1.5101624 2.3585815 3.5583801 2.3585815 5.694092l0 32.209656c0 4.447357 -3.6053162 8.052643 -8.052673 8.052643l-131.10727 0c-4.447357 0 -8.052673 -3.6052856 -8.052673 -8.052643z" fill-rule="evenodd"/><path fill="#000000" d="m320.49448 478.41232l0 -19.078125l3.796875 0l4.515625 13.5q0.625 1.890625 0.90625 2.828125q0.328125 -1.03125 1.015625 -3.0625l4.578125 -13.265625l3.390625 0l0 19.078125l-2.4375 0l0 -15.96875l-5.546875 15.96875l-2.265625 0l-5.53125 -16.25l0 16.25l-2.421875 0zm21.111115 -6.90625q0 -3.84375 2.125 -5.6875q1.78125 -1.546875 4.34375 -1.546875q2.859375 0 4.65625 1.875q1.8125 1.859375 1.8125 5.15625q0 2.671875 -0.796875 4.203125q-0.796875 1.53125 -2.328125 2.375q-1.53125 0.84375 -3.34375 0.84375q-2.890625 0 -4.6875 -1.859375q-1.78125 -1.859375 -1.78125 -5.359375zm2.40625 0q0 2.65625 1.15625 3.984375q1.15625 1.3125 2.90625 1.3125q1.75 0 2.90625 -1.328125q1.15625 -1.328125 1.15625 -4.046875q0 -2.5625 -1.171875 -3.890625q-1.15625 -1.328125 -2.890625 -1.328125q-1.75 0 -2.90625 1.328125q-1.15625 1.3125 -1.15625 3.96875zm22.246826 6.90625l0 -1.75q-1.3125 2.0625 -3.859375 2.0625q-1.65625 0 -3.046875 -0.90625q-1.375 -0.921875 -2.140625 -2.546875q-0.765625 -1.640625 -0.765625 -3.75q0 -2.078125 0.6875 -3.765625q0.703125 -1.6875 2.078125 -2.578125q1.375 -0.90625 3.078125 -0.90625q1.25 0 2.21875 0.53125q0.984375 0.53125 1.59375 1.375l0 -6.84375l2.34375 0l0 19.078125l-2.1875 0zm-7.40625 -6.890625q0 2.640625 1.125 3.96875q1.125 1.3125 2.640625 1.3125q1.53125 0 2.609375 -1.25q1.078125 -1.265625 1.078125 -3.84375q0 -2.84375 -1.09375 -4.171875q-1.09375 -1.328125 -2.703125 -1.328125q-1.546875 0 -2.609375 1.28125q-1.046875 1.28125 -1.046875 4.03125zm22.73117 2.4375l2.421875 0.296875q-0.578125 2.125 -2.125 3.296875q-1.546875 1.171875 -3.953125 1.171875q-3.03125 0 -4.8125 -1.859375q-1.78125 -1.875 -1.78125 -5.25q0 -3.484375 1.796875 -5.40625q1.796875 -1.9375 4.671875 -1.9375q2.765625 0 4.515625 1.890625q1.765625 1.890625 1.765625 5.3125q0 0.203125 -0.015625 0.625l-10.3125 0q0.140625 2.28125 1.296875 3.5q1.15625 1.203125 2.890625 1.203125q1.28125 0 2.1875 -0.671875q0.921875 -0.6875 1.453125 -2.171875zm-7.6875 -3.78125l7.71875 0q-0.15625 -1.75 -0.890625 -2.625q-1.125 -1.34375 -2.90625 -1.34375q-1.609375 0 -2.71875 1.078125q-1.09375 1.078125 -1.203125 2.890625zm12.996826 8.234375l0 -19.078125l2.34375 0l0 19.078125l-2.34375 0z" fill-rule="nonzero"/><path fill="#f1c232" d="m135.05774 618.8125l0 0c0 -4.4473877 3.605301 -8.052673 8.052658 -8.052673l131.10728 0c2.1357117 0 4.1839294 0.8483887 5.694092 2.3585815c1.5101624 1.5101929 2.3585815 3.5584106 2.3585815 5.694092l0 32.209656c0 4.4473267 -3.6053162 8.052673 -8.052673 8.052673l-131.10728 0c-4.447357 0 -8.052658 -3.6053467 -8.052658 -8.052673z" fill-rule="evenodd"/><path fill="#000000" d="m161.95789 644.51733l0 -19.078125l12.875 0l0 2.25l-10.34375 0l0 5.90625l8.953125 0l0 2.25l-8.953125 0l0 8.671875l-2.53125 0zm15.860825 -16.390625l0 -2.6875l2.34375 0l0 2.6875l-2.34375 0zm0 16.390625l0 -13.828125l2.34375 0l0 13.828125l-2.34375 0zm5.484665 1.140625l2.28125 0.34375q0.140625 1.046875 0.796875 1.53125q0.859375 0.65625 2.375 0.65625q1.625 0 2.5 -0.65625q0.890625 -0.640625 1.203125 -1.8125q0.1875 -0.71875 0.171875 -3.015625q-1.53125 1.8125 -3.828125 1.8125q-2.84375 0 -4.40625 -2.046875q-1.5625 -2.0625 -1.5625 -4.9375q0 -1.984375 0.71875 -3.65625q0.71875 -1.671875 2.078125 -2.578125q1.359375 -0.921875 3.1875 -0.921875q2.453125 0 4.03125 1.984375l0 -1.671875l2.171875 0l0 11.953125q0 3.234375 -0.65625 4.578125q-0.65625 1.34375 -2.09375 2.125q-1.421875 0.78125 -3.5 0.78125q-2.46875 0 -4.0 -1.109375q-1.515625 -1.109375 -1.46875 -3.359375zm1.9375 -8.296875q0 2.71875 1.078125 3.96875q1.078125 1.25 2.703125 1.25q1.625 0 2.71875 -1.234375q1.09375 -1.25 1.09375 -3.90625q0 -2.546875 -1.125 -3.828125q-1.125 -1.296875 -2.71875 -1.296875q-1.5625 0 -2.65625 1.28125q-1.09375 1.265625 -1.09375 3.765625zm22.37181 7.15625l0 -2.03125q-1.609375 2.34375 -4.375 2.34375q-1.234375 0 -2.296875 -0.46875q-1.0625 -0.46875 -1.578125 -1.171875q-0.5 -0.71875 -0.71875 -1.75q-0.140625 -0.6875 -0.140625 -2.1875l0 -8.5625l2.34375 0l0 7.671875q0 1.828125 0.140625 2.46875q0.21875 0.921875 0.9375 1.453125q0.71875 0.53125 1.765625 0.53125q1.0625 0 1.984375 -0.53125q0.921875 -0.546875 1.296875 -1.46875q0.390625 -0.9375 0.390625 -2.71875l0 -7.40625l2.34375 0l0 13.828125l-2.09375 0zm5.746811 0l0 -13.828125l2.109375 0l0 2.09375q0.796875 -1.46875 1.484375 -1.9375q0.6875 -0.46875 1.5 -0.46875q1.1875 0 2.40625 0.765625l-0.796875 2.171875q-0.859375 -0.515625 -1.71875 -0.515625q-0.765625 0 -1.390625 0.46875q-0.609375 0.453125 -0.859375 1.28125q-0.390625 1.25 -0.390625 2.734375l0 7.234375l-2.34375 0zm18.361115 -4.453125l2.421875 0.296875q-0.578125 2.125 -2.125 3.296875q-1.546875 1.171875 -3.953125 1.171875q-3.03125 0 -4.8125 -1.859375q-1.78125 -1.875 -1.78125 -5.25q0 -3.484375 1.796875 -5.40625q1.796875 -1.9375 4.671875 -1.9375q2.765625 0 4.515625 1.890625q1.765625 1.890625 1.765625 5.3125q0 0.203125 -0.015625 0.625l-10.3125 0q0.140625 2.28125 1.296875 3.5q1.15625 1.203125 2.890625 1.203125q1.28125 0 2.1875 -0.671875q0.921875 -0.6875 1.453125 -2.171875zm-7.6875 -3.78125l7.71875 0q-0.15625 -1.75 -0.890625 -2.625q-1.125 -1.34375 -2.90625 -1.34375q-1.609375 0 -2.71875 1.078125q-1.09375 1.078125 -1.203125 2.890625zm28.637146 8.234375l-2.34375 0l0 -14.921875q-0.859375 0.796875 -2.234375 1.609375q-1.359375 0.796875 -2.453125 1.203125l0 -2.265625q1.96875 -0.921875 3.4375 -2.234375q1.46875 -1.3125 2.078125 -2.546875l1.515625 0l0 19.15625z" fill-rule="nonzero"/><path fill="#f1c232" d="m406.3937 618.8125l0 0c0 -4.4473877 3.6052856 -8.052673 8.052643 -8.052673l131.1073 0c2.1356812 0 4.183899 0.8483887 5.694092 2.3585815c1.5101318 1.5101929 2.3585815 3.5584106 2.3585815 5.694092l0 32.209656c0 4.4473267 -3.6053467 8.052673 -8.052673 8.052673l-131.1073 0c-4.447357 0 -8.052643 -3.6053467 -8.052643 -8.052673z" fill-rule="evenodd"/><path fill="#000000" d="m433.29385 644.51733l0 -19.078125l12.875 0l0 2.25l-10.34375 0l0 5.90625l8.953125 0l0 2.25l-8.953125 0l0 8.671875l-2.53125 0zm15.860809 -16.390625l0 -2.6875l2.34375 0l0 2.6875l-2.34375 0zm0 16.390625l0 -13.828125l2.34375 0l0 13.828125l-2.34375 0zm5.48468 1.140625l2.28125 0.34375q0.140625 1.046875 0.796875 1.53125q0.859375 0.65625 2.375 0.65625q1.625 0 2.5 -0.65625q0.890625 -0.640625 1.203125 -1.8125q0.1875 -0.71875 0.171875 -3.015625q-1.53125 1.8125 -3.828125 1.8125q-2.84375 0 -4.40625 -2.046875q-1.5625 -2.0625 -1.5625 -4.9375q0 -1.984375 0.71875 -3.65625q0.71875 -1.671875 2.078125 -2.578125q1.359375 -0.921875 3.1875 -0.921875q2.453125 0 4.03125 1.984375l0 -1.671875l2.171875 0l0 11.953125q0 3.234375 -0.65625 4.578125q-0.65625 1.34375 -2.09375 2.125q-1.421875 0.78125 -3.5 0.78125q-2.46875 0 -4.0 -1.109375q-1.515625 -1.109375 -1.46875 -3.359375zm1.9375 -8.296875q0 2.71875 1.078125 3.96875q1.078125 1.25 2.703125 1.25q1.625 0 2.71875 -1.234375q1.09375 -1.25 1.09375 -3.90625q0 -2.546875 -1.125 -3.828125q-1.125 -1.296875 -2.71875 -1.296875q-1.5625 0 -2.65625 1.28125q-1.09375 1.265625 -1.09375 3.765625zm22.371796 7.15625l0 -2.03125q-1.609375 2.34375 -4.375 2.34375q-1.234375 0 -2.296875 -0.46875q-1.0625 -0.46875 -1.578125 -1.171875q-0.5 -0.71875 -0.71875 -1.75q-0.140625 -0.6875 -0.140625 -2.1875l0 -8.5625l2.34375 0l0 7.671875q0 1.828125 0.140625 2.46875q0.21875 0.921875 0.9375 1.453125q0.71875 0.53125 1.765625 0.53125q1.0625 0 1.984375 -0.53125q0.921875 -0.546875 1.296875 -1.46875q0.390625 -0.9375 0.390625 -2.71875l0 -7.40625l2.34375 0l0 13.828125l-2.09375 0zm5.746826 0l0 -13.828125l2.109375 0l0 2.09375q0.796875 -1.46875 1.484375 -1.9375q0.6875 -0.46875 1.5 -0.46875q1.1875 0 2.40625 0.765625l-0.796875 2.171875q-0.859375 -0.515625 -1.71875 -0.515625q-0.765625 0 -1.390625 0.46875q-0.609375 0.453125 -0.859375 1.28125q-0.390625 1.25 -0.390625 2.734375l0 7.234375l-2.34375 0zm18.361115 -4.453125l2.421875 0.296875q-0.578125 2.125 -2.125 3.296875q-1.546875 1.171875 -3.953125 1.171875q-3.03125 0 -4.8125 -1.859375q-1.78125 -1.875 -1.78125 -5.25q0 -3.484375 1.796875 -5.40625q1.796875 -1.9375 4.671875 -1.9375q2.765625 0 4.515625 1.890625q1.765625 1.890625 1.765625 5.3125q0 0.203125 -0.015625 0.625l-10.3125 0q0.140625 2.28125 1.296875 3.5q1.15625 1.203125 2.890625 1.203125q1.28125 0 2.1875 -0.671875q0.921875 -0.6875 1.453125 -2.171875zm-7.6875 -3.78125l7.71875 0q-0.15625 -1.75 -0.890625 -2.625q-1.125 -1.34375 -2.90625 -1.34375q-1.609375 0 -2.71875 1.078125q-1.09375 1.078125 -1.203125 2.890625zm32.12152 5.984375l0 2.25l-12.609375 0q-0.03125 -0.84375 0.265625 -1.625q0.484375 -1.296875 1.546875 -2.546875q1.0625 -1.25 3.0625 -2.875q3.109375 -2.5625 4.203125 -4.046875q1.09375 -1.5 1.09375 -2.8125q0 -1.40625 -1.0 -2.359375q-0.984375 -0.953125 -2.59375 -0.953125q-1.6875 0 -2.703125 1.015625q-1.015625 1.015625 -1.03125 2.8125l-2.40625 -0.25q0.25 -2.6875 1.859375 -4.09375q1.609375 -1.421875 4.328125 -1.421875q2.75 0 4.34375 1.53125q1.609375 1.515625 1.609375 3.765625q0 1.140625 -0.46875 2.25q-0.46875 1.109375 -1.5625 2.328125q-1.078125 1.21875 -3.609375 3.359375q-2.09375 1.765625 -2.703125 2.40625q-0.59375 0.625 -0.984375 1.265625l9.359375 0z" fill-rule="nonzero"/><path fill="#f1c232" d="m677.7297 618.8125l0 0c0 -4.4473877 3.6052856 -8.052673 8.052612 -8.052673l131.1073 0c2.1357422 0 4.18396 0.8483887 5.694092 2.3585815c1.5101929 1.5101929 2.3585815 3.5584106 2.3585815 5.694092l0 32.209656c0 4.4473267 -3.6052856 8.052673 -8.052673 8.052673l-131.1073 0c-4.4473267 0 -8.052612 -3.6053467 -8.052612 -8.052673z" fill-rule="evenodd"/><path fill="#000000" d="m704.6298 644.51733l0 -19.078125l12.875 0l0 2.25l-10.34375 0l0 5.90625l8.953125 0l0 2.25l-8.953125 0l0 8.671875l-2.53125 0zm15.860779 -16.390625l0 -2.6875l2.34375 0l0 2.6875l-2.34375 0zm0 16.390625l0 -13.828125l2.34375 0l0 13.828125l-2.34375 0zm5.48468 1.140625l2.28125 0.34375q0.140625 1.046875 0.796875 1.53125q0.859375 0.65625 2.375 0.65625q1.625 0 2.5 -0.65625q0.890625 -0.640625 1.203125 -1.8125q0.1875 -0.71875 0.171875 -3.015625q-1.53125 1.8125 -3.828125 1.8125q-2.84375 0 -4.40625 -2.046875q-1.5625 -2.0625 -1.5625 -4.9375q0 -1.984375 0.71875 -3.65625q0.71875 -1.671875 2.078125 -2.578125q1.359375 -0.921875 3.1875 -0.921875q2.453125 0 4.03125 1.984375l0 -1.671875l2.171875 0l0 11.953125q0 3.234375 -0.65625 4.578125q-0.65625 1.34375 -2.09375 2.125q-1.421875 0.78125 -3.5 0.78125q-2.46875 0 -4.0 -1.109375q-1.515625 -1.109375 -1.46875 -3.359375zm1.9375 -8.296875q0 2.71875 1.078125 3.96875q1.078125 1.25 2.703125 1.25q1.625 0 2.71875 -1.234375q1.09375 -1.25 1.09375 -3.90625q0 -2.546875 -1.125 -3.828125q-1.125 -1.296875 -2.71875 -1.296875q-1.5625 0 -2.65625 1.28125q-1.09375 1.265625 -1.09375 3.765625zm22.371826 7.15625l0 -2.03125q-1.609375 2.34375 -4.375 2.34375q-1.234375 0 -2.296875 -0.46875q-1.0625 -0.46875 -1.578125 -1.171875q-0.5 -0.71875 -0.71875 -1.75q-0.140625 -0.6875 -0.140625 -2.1875l0 -8.5625l2.34375 0l0 7.671875q0 1.828125 0.140625 2.46875q0.21875 0.921875 0.9375 1.453125q0.71875 0.53125 1.765625 0.53125q1.0625 0 1.984375 -0.53125q0.921875 -0.546875 1.296875 -1.46875q0.390625 -0.9375 0.390625 -2.71875l0 -7.40625l2.34375 0l0 13.828125l-2.09375 0zm5.746826 0l0 -13.828125l2.109375 0l0 2.09375q0.796875 -1.46875 1.484375 -1.9375q0.6875 -0.46875 1.5 -0.46875q1.1875 0 2.40625 0.765625l-0.796875 2.171875q-0.859375 -0.515625 -1.71875 -0.515625q-0.765625 0 -1.390625 0.46875q-0.609375 0.453125 -0.859375 1.28125q-0.390625 1.25 -0.390625 2.734375l0 7.234375l-2.34375 0zm18.361084 -4.453125l2.421875 0.296875q-0.578125 2.125 -2.125 3.296875q-1.546875 1.171875 -3.953125 1.171875q-3.03125 0 -4.8125 -1.859375q-1.78125 -1.875 -1.78125 -5.25q0 -3.484375 1.796875 -5.40625q1.796875 -1.9375 4.671875 -1.9375q2.765625 0 4.515625 1.890625q1.765625 1.890625 1.765625 5.3125q0 0.203125 -0.015625 0.625l-10.3125 0q0.140625 2.28125 1.296875 3.5q1.15625 1.203125 2.890625 1.203125q1.28125 0 2.1875 -0.671875q0.921875 -0.6875 1.453125 -2.171875zm-7.6875 -3.78125l7.71875 0q-0.15625 -1.75 -0.890625 -2.625q-1.125 -1.34375 -2.90625 -1.34375q-1.609375 0 -2.71875 1.078125q-1.09375 1.078125 -1.203125 2.890625zm19.824646 3.203125l2.34375 -0.3125q0.390625 1.984375 1.359375 2.875q0.984375 0.875 2.375 0.875q1.640625 0 2.78125 -1.140625q1.140625 -1.15625 1.140625 -2.84375q0 -1.625 -1.0625 -2.671875q-1.046875 -1.046875 -2.671875 -1.046875q-0.65625 0 -1.65625 0.265625l0.265625 -2.0625q0.234375 0.03125 0.375 0.03125q1.5 0 2.6875 -0.78125q1.203125 -0.78125 1.203125 -2.40625q0 -1.296875 -0.875 -2.140625q-0.859375 -0.84375 -2.25 -0.84375q-1.359375 0 -2.28125 0.859375q-0.90625 0.859375 -1.15625 2.578125l-2.34375 -0.421875q0.421875 -2.34375 1.9375 -3.640625q1.53125 -1.296875 3.796875 -1.296875q1.5625 0 2.875 0.671875q1.3125 0.671875 2.0 1.828125q0.703125 1.15625 0.703125 2.453125q0 1.234375 -0.671875 2.25q-0.65625 1.015625 -1.953125 1.625q1.6875 0.390625 2.625 1.625q0.9375 1.21875 0.9375 3.0625q0 2.5 -1.828125 4.25q-1.8125 1.734375 -4.59375 1.734375q-2.515625 0 -4.171875 -1.5q-1.65625 -1.5 -1.890625 -3.875z" fill-rule="nonzero"/><path fill="#000000" fill-opacity="0.0" d="m480.0 99.63517l0 29.858269" fill-rule="evenodd"/><path stroke="#545454" stroke-width="2.0" stroke-linejoin="round" stroke-linecap="butt" d="m480.0 99.63517l0 17.858269" fill-rule="evenodd"/><path fill="#545454" stroke="#545454" stroke-width="2.0" stroke-linecap="butt" d="m476.69653 117.49344l3.3034668 9.076195l3.3034668 -9.076195z" fill-rule="evenodd"/><path fill="#000000" fill-opacity="0.0" d="m480.0 184.76509l0 29.858261" fill-rule="evenodd"/><path stroke="#545454" stroke-width="2.0" stroke-linejoin="round" stroke-linecap="butt" d="m480.0 184.76509l0 17.858261" fill-rule="evenodd"/><path fill="#545454" stroke="#545454" stroke-width="2.0" stroke-linecap="butt" d="m476.69653 202.62337l3.3034668 9.076187l3.3034668 -9.076187z" fill-rule="evenodd"/><path fill="#000000" fill-opacity="0.0" d="m480.0 282.42914l271.33856 244.94489" fill-rule="evenodd"/><path stroke="#545454" stroke-width="2.0" stroke-linejoin="round" stroke-linecap="butt" d="m480.0 282.42914l262.4312 236.90387" fill-rule="evenodd"/><path fill="#545454" stroke="#545454" stroke-width="2.0" stroke-linecap="butt" d="m740.2175 521.78516l8.950745 3.6296387l-4.5235596 -8.5338745z" fill-rule="evenodd"/><path fill="#000000" fill-opacity="0.0" d="m480.0 282.42914l-125.19684 29.51181" fill-rule="evenodd"/><path stroke="#545454" stroke-width="2.0" stroke-linejoin="round" stroke-linecap="butt" d="m480.0 282.42914l-113.51697 26.758575" fill-rule="evenodd"/><path fill="#545454" stroke="#545454" stroke-width="2.0" stroke-linecap="butt" d="m365.7251 305.97238l-8.076141 5.2977295l9.5920105 1.1329651z" fill-rule="evenodd"/><path fill="#000000" fill-opacity="0.0" d="m354.81104 415.13254l0 29.51181" fill-rule="evenodd"/><path stroke="#545454" stroke-width="2.0" stroke-linejoin="round" stroke-linecap="butt" d="m354.81104 415.13254l0 17.51181" fill-rule="evenodd"/><path fill="#545454" stroke="#545454" stroke-width="2.0" stroke-linecap="butt" d="m351.50757 432.64435l3.3034668 9.076202l3.3034668 -9.076202z" fill-rule="evenodd"/><path fill="#000000" fill-opacity="0.0" d="m354.81104 492.96982l-146.14174 34.393707" fill-rule="evenodd"/><path stroke="#545454" stroke-width="2.0" stroke-linejoin="round" stroke-linecap="butt" d="m354.81104 492.96982l-134.46086 31.644684" fill-rule="evenodd"/><path fill="#545454" stroke="#545454" stroke-width="2.0" stroke-linecap="butt" d="m219.59338 521.39886l-8.078049 5.294861l9.591614 1.1363525z" fill-rule="evenodd"/><path fill="#000000" fill-opacity="0.0" d="m354.81104 492.96982l125.19684 34.393707" fill-rule="evenodd"/><path stroke="#545454" stroke-width="2.0" stroke-linejoin="round" stroke-linecap="butt" d="m354.81104 492.96982l113.62552 31.214874" fill-rule="evenodd"/><path fill="#545454" stroke="#545454" stroke-width="2.0" stroke-linecap="butt" d="m467.56146 527.3701l9.627045 -0.7811279l-7.876831 -5.5897827z" fill-rule="evenodd"/><path fill="#000000" fill-opacity="0.0" d="m208.66405 582.64307l0 28.125977" fill-rule="evenodd"/><path stroke="#545454" stroke-width="2.0" stroke-linejoin="round" stroke-linecap="butt" d="m208.66405 582.64307l0 16.125977" fill-rule="evenodd"/><path fill="#545454" stroke="#545454" stroke-width="2.0" stroke-linecap="butt" d="m205.36058 598.76904l3.3034668 9.076172l3.3034668 -9.076172z" fill-rule="evenodd"/><path fill="#000000" fill-opacity="0.0" d="m480.0 582.64307l0 28.125977" fill-rule="evenodd"/><path stroke="#545454" stroke-width="2.0" stroke-linejoin="round" stroke-linecap="butt" d="m480.0 582.64307l0 16.125977" fill-rule="evenodd"/><path fill="#545454" stroke="#545454" stroke-width="2.0" stroke-linecap="butt" d="m476.69653 598.76904l3.3034668 9.076172l3.3034668 -9.076172z" fill-rule="evenodd"/><path fill="#000000" fill-opacity="0.0" d="m751.33594 582.64307l0 28.125977" fill-rule="evenodd"/><path stroke="#545454" stroke-width="2.0" stroke-linejoin="round" stroke-linecap="butt" d="m751.33594 582.64307l0 16.125977" fill-rule="evenodd"/><path fill="#545454" stroke="#545454" stroke-width="2.0" stroke-linecap="butt" d="m748.0325 598.76904l3.3034668 9.076172l3.3034668 -9.076172z" fill-rule="evenodd"/><path fill="#000000" fill-opacity="0.0" d="m37.372704 32.755905l209.95276 0l0 222.04724l-209.95276 0z" fill-rule="evenodd"/><path stroke="#000000" stroke-width="1.0" stroke-linejoin="round" stroke-linecap="butt" d="m37.372704 32.755905l209.95276 0l0 222.04724l-209.95276 0z" fill-rule="evenodd"/><path fill="#000000" d="m48.716454 78.49953l0 -22.90625l3.03125 0l0 11.359375l11.375 -11.359375l4.109375 0l-9.609375 9.28125l10.03125 13.625l-4.0 0l-8.15625 -11.59375l-3.75 3.65625l0 7.9375l-3.03125 0zm32.46875 -5.34375l2.90625 0.359375q-0.6875 2.546875 -2.546875 3.953125q-1.859375 1.40625 -4.75 1.40625q-3.640625 0 -5.78125 -2.234375q-2.125 -2.25 -2.125 -6.296875q0 -4.1875 2.15625 -6.5q2.15625 -2.3125 5.59375 -2.3125q3.328125 0 5.4375 2.265625q2.109375 2.265625 2.109375 6.375q0 0.25 -0.015625 0.75l-12.375 0q0.15625 2.734375 1.546875 4.1875q1.390625 1.453125 3.46875 1.453125q1.546875 0 2.640625 -0.8125q1.09375 -0.8125 1.734375 -2.59375zm-9.234375 -4.546875l9.265625 0q-0.1875 -2.09375 -1.0625 -3.140625q-1.34375 -1.625 -3.484375 -1.625q-1.9375 0 -3.265625 1.296875q-1.3125 1.296875 -1.453125 3.46875zm15.546875 16.28125l-0.3125 -2.640625q0.921875 0.25 1.609375 0.25q0.9375 0 1.5 -0.3125q0.5625 -0.3125 0.921875 -0.875q0.265625 -0.421875 0.859375 -2.09375q0.078125 -0.234375 0.25 -0.6875l-6.296875 -16.625l3.03125 0l3.453125 9.609375q0.671875 1.828125 1.203125 3.84375q0.484375 -1.9375 1.15625 -3.78125l3.546875 -9.671875l2.8125 0l-6.3125 16.875q-1.015625 2.734375 -1.578125 3.765625q-0.75 1.390625 -1.71875 2.03125q-0.96875 0.65625 -2.3125 0.65625q-0.8125 0 -1.8125 -0.34375zm16.90625 -19.78125l0 -3.203125l3.203125 0l0 3.203125l-3.203125 0zm0 13.390625l0 -3.203125l3.203125 0l0 3.203125l-3.203125 0z" fill-rule="nonzero"/><path fill="#f1c232" d="m68.74278 111.674706l0 0c0 -4.447365 3.6052933 -8.052658 8.05265 -8.052658l131.1073 0c2.1356964 0 4.183914 0.84840393 5.694092 2.3585663c1.5101624 1.51017 2.3585663 3.5583878 2.3585663 5.694092l0 32.20965c0 4.447357 -3.605301 8.052658 -8.052658 8.052658l-131.1073 0c-4.447357 0 -8.05265 -3.605301 -8.05265 -8.052658z" fill-rule="evenodd"/><path fill="#000000" d="m91.07956 137.37953l0 -19.078133l6.5625 0q2.234375 0 3.40625 0.265625q1.640625 0.375 2.796875 1.375q1.5 1.265625 2.25 3.25q0.75 1.984375 0.75 4.546875q0 2.1718826 -0.515625 3.8593826q-0.5 1.671875 -1.296875 2.78125q-0.78125 1.09375 -1.734375 1.71875q-0.9375 0.625 -2.28125 0.953125q-1.328125 0.328125 -3.0625 0.328125l-6.875 0zm2.515625 -2.25l4.078125 0q1.890625 0 2.953125 -0.34375q1.078125 -0.359375 1.71875 -1.0q0.890625 -0.890625 1.390625 -2.40625q0.515625 -1.515625 0.515625 -3.6875076q0 -2.984375 -0.984375 -4.59375q-0.984375 -1.609375 -2.390625 -2.15625q-1.015625 -0.390625 -3.265625 -0.390625l-4.015625 0l0 14.578133zm25.453415 0.546875q-1.3125 1.109375 -2.515625 1.5625q-1.203125 0.453125 -2.578125 0.453125q-2.28125 0 -3.5 -1.109375q-1.21875 -1.109375 -1.21875 -2.84375q0 -1.015625 0.453125 -1.859375q0.46875 -0.84375 1.21875 -1.34375q0.75 -0.515625 1.6875 -0.765625q0.6875 -0.1875 2.078125 -0.359375q2.828125 -0.328125 4.171875 -0.796875q0.015625 -0.484375 0.015625 -0.6250076q0 -1.421875 -0.65625 -2.015625q-0.90625 -0.796875 -2.671875 -0.796875q-1.65625 0 -2.453125 0.59375q-0.78125 0.578125 -1.15625 2.046875l-2.296875 -0.3125q0.3125 -1.46875 1.03125 -2.375q0.71875 -0.90625 2.0625 -1.390625q1.359375 -0.5 3.140625 -0.5q1.78125 0 2.875 0.421875q1.109375 0.421875 1.625 1.046875q0.53125 0.625 0.734375 1.59375q0.125 0.59375 0.125 2.1562576l0 3.125q0 3.265625 0.140625 4.140625q0.15625 0.859375 0.59375 1.65625l-2.4375 0q-0.375 -0.734375 -0.46875 -1.703125zm-0.203125 -5.234375q-1.265625 0.515625 -3.828125 0.890625q-1.4375 0.203125 -2.046875 0.46875q-0.59375 0.25 -0.921875 0.75q-0.3125 0.5 -0.3125 1.125q0 0.9375 0.703125 1.5625q0.703125 0.625 2.078125 0.625q1.34375 0 2.390625 -0.59375q1.0625 -0.59375 1.5625 -1.625q0.375 -0.796875 0.375 -2.34375l0 -0.859375zm11.121811 4.84375l0.328125 2.0625q-0.984375 0.21875 -1.765625 0.21875q-1.265625 0 -1.96875 -0.40625q-0.703125 -0.40625 -1.0 -1.0625q-0.28125 -0.65625 -0.28125 -2.765625l0 -7.9531326l-1.71875 0l0 -1.828125l1.71875 0l0 -3.421875l2.328125 -1.40625l0 4.828125l2.359375 0l0 1.828125l-2.359375 0l0 8.078133q0 1.0 0.125 1.296875q0.125 0.28125 0.40625 0.453125q0.28125 0.171875 0.796875 0.171875q0.390625 0 1.03125 -0.09375zm11.31221 0.390625q-1.3125 1.109375 -2.515625 1.5625q-1.203125 0.453125 -2.578125 0.453125q-2.28125 0 -3.5 -1.109375q-1.21875 -1.109375 -1.21875 -2.84375q0 -1.015625 0.453125 -1.859375q0.46875 -0.84375 1.21875 -1.34375q0.75 -0.515625 1.6875 -0.765625q0.6875 -0.1875 2.078125 -0.359375q2.828125 -0.328125 4.171875 -0.796875q0.015625 -0.484375 0.015625 -0.6250076q0 -1.421875 -0.65625 -2.015625q-0.90625 -0.796875 -2.671875 -0.796875q-1.65625 0 -2.453125 0.59375q-0.78125 0.578125 -1.15625 2.046875l-2.296875 -0.3125q0.3125 -1.46875 1.03125 -2.375q0.71875 -0.90625 2.0625 -1.390625q1.359375 -0.5 3.140625 -0.5q1.78125 0 2.875 0.421875q1.109375 0.421875 1.625 1.046875q0.53125 0.625 0.734375 1.59375q0.125 0.59375 0.125 2.1562576l0 3.125q0 3.265625 0.140625 4.140625q0.15625 0.859375 0.59375 1.65625l-2.4375 0q-0.375 -0.734375 -0.46875 -1.703125zm-0.203125 -5.234375q-1.265625 0.515625 -3.828125 0.890625q-1.4375 0.203125 -2.046875 0.46875q-0.59375 0.25 -0.921875 0.75q-0.3125 0.5 -0.3125 1.125q0 0.9375 0.703125 1.5625q0.703125 0.625 2.078125 0.625q1.34375 0 2.390625 -0.59375q1.0625 -0.59375 1.5625 -1.625q0.375 -0.796875 0.375 -2.34375l0 -0.859375zm13.840271 6.9375l0 -19.078133l12.875 0l0 2.25l-10.34375 0l0 5.90625l8.953125 0l0 2.2500076l-8.953125 0l0 8.671875l-2.53125 0zm15.860825 -16.390633l0 -2.6875l2.34375 0l0 2.6875l-2.34375 0zm0 16.390633l0 -13.828133l2.34375 0l0 13.828133l-2.34375 0zm5.859665 0l0 -19.078133l2.34375 0l0 19.078133l-2.34375 0zm15.43779 -4.453125l2.421875 0.296875q-0.578125 2.125 -2.125 3.296875q-1.546875 1.171875 -3.953125 1.171875q-3.03125 0 -4.8125 -1.859375q-1.78125 -1.875 -1.78125 -5.25q0 -3.4843826 1.796875 -5.4062576q1.796875 -1.9375 4.671875 -1.9375q2.765625 0 4.515625 1.890625q1.765625 1.890625 1.765625 5.3125076q0 0.203125 -0.015625 0.625l-10.3125 0q0.140625 2.28125 1.296875 3.5q1.15625 1.203125 2.890625 1.203125q1.28125 0 2.1875 -0.671875q0.921875 -0.6875 1.453125 -2.171875zm-7.6875 -3.78125l7.71875 0q-0.15625 -1.7500076 -0.890625 -2.6250076q-1.125 -1.34375 -2.90625 -1.34375q-1.609375 0 -2.71875 1.078125q-1.09375 1.078125 -1.203125 2.8906326z" fill-rule="nonzero"/><path fill="#008abc" d="m69.27821 176.7664l146.14174 0l0 55.27559l-146.14174 0z" fill-rule="evenodd"/><path fill="#f3f3f3" d="m100.97945 204.67891l2.53125 0.640625q-0.796875 3.109375 -2.859375 4.75q-2.0625 1.625 -5.046875 1.625q-3.09375 0 -5.03125 -1.25q-1.921875 -1.265625 -2.9375 -3.640625q-1.0 -2.390625 -1.0 -5.125q0 -2.984375 1.140625 -5.203125q1.140625 -2.21875 3.234375 -3.359375q2.109375 -1.15625 4.625 -1.15625q2.875 0 4.828125 1.46875q1.953125 1.453125 2.71875 4.09375l-2.484375 0.578125q-0.671875 -2.078125 -1.9375 -3.03125q-1.25 -0.953125 -3.171875 -0.953125q-2.203125 0 -3.6875 1.0625q-1.46875 1.046875 -2.0625 2.828125q-0.59375 1.78125 -0.59375 3.65625q0 2.4375 0.703125 4.265625q0.703125 1.8125 2.203125 2.71875q1.5 0.890625 3.25 0.890625q2.109375 0 3.578125 -1.21875q1.484375 -1.234375 2.0 -3.640625zm4.46904 -0.21875q0 -3.84375 2.125 -5.6875q1.78125 -1.546875 4.34375 -1.546875q2.859375 0 4.65625 1.875q1.8125 1.859375 1.8125 5.15625q0 2.671875 -0.796875 4.203125q-0.796875 1.53125 -2.328125 2.375q-1.53125 0.84375 -3.34375 0.84375q-2.890625 0 -4.6875 -1.859375q-1.78125 -1.859375 -1.78125 -5.359375zm2.40625 0q0 2.65625 1.15625 3.984375q1.15625 1.3125 2.90625 1.3125q1.75 0 2.90625 -1.328125q1.15625 -1.328125 1.15625 -4.046875q0 -2.5625 -1.171875 -3.890625q-1.15625 -1.328125 -2.890625 -1.328125q-1.75 0 -2.90625 1.328125q-1.15625 1.3125 -1.15625 3.96875zm22.24681 6.90625l0 -1.75q-1.3125 2.0625 -3.859375 2.0625q-1.65625 0 -3.046875 -0.90625q-1.375 -0.921875 -2.140625 -2.546875q-0.765625 -1.640625 -0.765625 -3.75q0 -2.078125 0.6875 -3.765625q0.703125 -1.6875 2.078125 -2.578125q1.375 -0.90625 3.078125 -0.90625q1.25 0 2.21875 0.53125q0.984375 0.53125 1.59375 1.375l0 -6.84375l2.34375 0l0 19.078125l-2.1875 0zm-7.40625 -6.890625q0 2.640625 1.125 3.96875q1.125 1.3125 2.640625 1.3125q1.53125 0 2.609375 -1.25q1.078125 -1.265625 1.078125 -3.84375q0 -2.84375 -1.09375 -4.171875q-1.09375 -1.328125 -2.703125 -1.328125q-1.546875 0 -2.609375 1.28125q-1.046875 1.28125 -1.046875 4.03125zm22.731186 2.4375l2.421875 0.296875q-0.578125 2.125 -2.125 3.296875q-1.546875 1.171875 -3.953125 1.171875q-3.03125 0 -4.8125 -1.859375q-1.78125 -1.875 -1.78125 -5.25q0 -3.484375 1.796875 -5.40625q1.796875 -1.9375 4.671875 -1.9375q2.765625 0 4.515625 1.890625q1.765625 1.890625 1.765625 5.3125q0 0.203125 -0.015625 0.625l-10.3125 0q0.140625 2.28125 1.296875 3.5q1.15625 1.203125 2.890625 1.203125q1.28125 0 2.1875 -0.671875q0.921875 -0.6875 1.453125 -2.171875zm-7.6875 -3.78125l7.71875 0q-0.15625 -1.75 -0.890625 -2.625q-1.125 -1.34375 -2.90625 -1.34375q-1.609375 0 -2.71875 1.078125q-1.09375 1.078125 -1.203125 2.890625zm20.887146 8.234375l0 -19.078125l12.875 0l0 2.25l-10.34375 0l0 5.90625l8.953125 0l0 2.25l-8.953125 0l0 8.671875l-2.53125 0zm15.860825 -16.390625l0 -2.6875l2.34375 0l0 2.6875l-2.34375 0zm0 16.390625l0 -13.828125l2.34375 0l0 13.828125l-2.34375 0zm5.859665 0l0 -19.078125l2.34375 0l0 19.078125l-2.34375 0zm15.43779 -4.453125l2.421875 0.296875q-0.578125 2.125 -2.125 3.296875q-1.546875 1.171875 -3.953125 1.171875q-3.03125 0 -4.8125 -1.859375q-1.78125 -1.875 -1.78125 -5.25q0 -3.484375 1.796875 -5.40625q1.796875 -1.9375 4.671875 -1.9375q2.765625 0 4.515625 1.890625q1.765625 1.890625 1.765625 5.3125q0 0.203125 -0.015625 0.625l-10.3125 0q0.140625 2.28125 1.296875 3.5q1.15625 1.203125 2.890625 1.203125q1.28125 0 2.1875 -0.671875q0.921875 -0.6875 1.453125 -2.171875zm-7.6875 -3.78125l7.71875 0q-0.15625 -1.75 -0.890625 -2.625q-1.125 -1.34375 -2.90625 -1.34375q-1.609375 0 -2.71875 1.078125q-1.09375 1.078125 -1.203125 2.890625z" fill-rule="nonzero"/></g></svg>