<?xml version="1.0" encoding="utf-8" standalone="no"?>
<svg xmlns="http://www.w3.org/2000/svg" xmlns:xlink="http://www.w3.org/1999/xlink" width="604px" height="847px" viewBox="0 0 604 847" version="1.1">
    
    <title>Group 2</title>
    <desc>Created with Sketch.</desc>
    <defs>
        <linearGradient x1="73.9117146%" y1="25.2459544%" x2="32.8871326%" y2="75.0007201%" id="linearGradient-1">
            <stop stop-color="#5B78FD" offset="0%"/>
            <stop stop-color="#4CA5FC" offset="53.2420473%"/>
            <stop stop-color="#5B78FD" offset="100%"/>
        </linearGradient>
        <linearGradient x1="50%" y1="22.4623661%" x2="50%" y2="100%" id="linearGradient-2">
            <stop stop-color="#3DD2FB" offset="0%"/>
            <stop stop-color="#5B78FD" offset="100%"/>
        </linearGradient>
        <path id="path-3" d="M0,0.333680952 L74.6784099,0.333680952 L74.6784099,80.8809524 L0,80.8809524"/>
        <path id="path-5" d="M0,0.333680952 L74.6784099,0.333680952 L74.6784099,80.8809524 L0,80.8809524 L0,0.333680952 Z"/>
        <path id="path-7" d="M0,0.333680952 L74.6784099,0.333680952 L74.6784099,80.8809524 L0,80.8809524"/>
        <path id="path-9" d="M0,0.333680952 L74.6784099,0.333680952 L74.6784099,80.8809524 L0,80.8809524"/>
        <path id="path-11" d="M0,0.375814286 L65.5081143,0.375814286 L65.5081143,80.8809524 L0,80.8809524"/>
        <path id="path-13" d="M0,0.373180952 L81.3205342,0.373180952 L81.3205342,80.8809524 L0,80.8809524"/>
        <path id="path-15" d="M0,0.373180952 L81.3205342,0.373180952 L81.3205342,80.8809524 L0,80.8809524"/>
        <path id="path-17" d="M0,0.373723912 L65.1938629,0.373723912 L65.1938629,80.5116645 L0,80.5116645"/>
        <path id="path-19" d="M0,0.000374472858 L14.9111679,0.000374472858 L14.9111679,80.1371916 L0,80.1371916"/>
        <path id="path-21" d="M0,0.000374472858 L14.9111679,0.000374472858 L14.9111679,80.1371916 L0,80.1371916"/>
        <path id="path-23" d="M0,0.0943956367 L59.5384697,0.0943956367 L59.5384697,60.1904762 L0,60.1904762"/>
        <path id="path-25" d="M0,0.0943956367 L59.5384697,0.0943956367 L59.5384697,60.1904762 L0,60.1904762"/>
        <path id="path-27" d="M0,0.268223248 L50.8527959,0.268223248 L50.8527959,59.0860638 L0,59.0860638"/>
        <path id="path-29" d="M0,0.268223248 L50.8527959,0.268223248 L50.8527959,59.0860638 L0,59.0860638"/>
    </defs>
    <g id="Page-1" stroke="none" stroke-width="1" fill="none" fill-rule="evenodd">
        <g id="Artboard" transform="translate(-494.000000, -157.000000)">
            <g id="Group-2" transform="translate(494.000000, 157.000000)">
                <g id="Group" transform="translate(87.000000, 0.000000)">
                    <rect id="Rectangle-7" fill="#4CA5FC" x="16.5191638" y="322.487578" width="397.961672" height="156.858178"/>
                    <rect id="Rectangle-7" fill="#5B78FD" x="16.5191638" y="322.487578" width="397.961672" height="156.858178"/>
                    <path d="M87.7498438,252.456514 C92.1582088,221.702606 120.667199,193.200694 151.422029,188.796346 L320.330231,164.607284 C351.087043,160.202652 371.635554,181.433561 366.227571,212.022434 L337.690104,373.437333 C332.281693,404.02863 303.099173,433.207854 272.501316,438.612333 L110.969341,467.143621 C80.3749785,472.547483 59.1459723,452.004612 63.5553982,421.243303 L87.7498438,252.456514 Z" id="Rectangle-5" stroke="#979797" stroke-width="0.5625" fill="#D8D8D8" transform="translate(215.033143, 316.016800) rotate(-315.000000) translate(-215.033143, -316.016800) "/>
                    <path d="M88.5007149,424.325044 C92.9090798,393.571136 121.41807,365.069224 152.1729,360.664876 L321.081102,336.475814 C351.837914,332.071182 372.386425,353.302091 366.978443,383.890964 L338.440975,545.305863 C333.032565,575.89716 303.850044,605.076384 273.252188,610.480863 L111.720212,639.012151 C81.1258496,644.416013 59.8968434,623.873142 64.3062693,593.111833 L88.5007149,424.325044 Z" id="Rectangle-5" fill="url(#linearGradient-1)" transform="translate(215.784014, 487.885330) rotate(-315.000000) translate(-215.784014, -487.885330) "/>
                    <path d="M87.7498438,252.456514 C92.1582088,221.702606 120.667199,193.200694 151.422029,188.796346 L320.330231,164.607284 C351.087043,160.202652 371.635554,181.433561 366.227571,212.022434 L337.690104,373.437333 C332.281693,404.02863 303.099173,433.207854 272.501316,438.612333 L110.969341,467.143621 C80.3749785,472.547483 59.1459723,452.004612 63.5553982,421.243303 L87.7498438,252.456514 Z" id="Rectangle-5" fill="#3DD2FB" transform="translate(215.033143, 316.016800) rotate(-315.000000) translate(-215.033143, -316.016800) "/>
                    <rect id="Rectangle-4" fill="#FFFFFF" x="119.388502" y="95.0807453" width="175.913754" height="168.991824"/>
                    <ellipse id="Oval-1" fill="#FFFFFF" cx="253.677354" cy="163.234095" rx="59.201744" ry="59.1471386"/>
                    <ellipse id="Oval-1" fill="#FFFFFF" cx="130.360908" cy="178.065593" rx="71.0420928" ry="70.9765663"/>
                    <path d="M326.501886,397.975197 L260.448268,348.518232 C235.585345,329.902376 195.27673,329.917157 170.423499,348.55652 L104.607958,397.91669 L169.488067,443.317885 C194.945564,461.132293 236.213549,461.134623 261.669186,443.327634 L326.501886,397.975197 Z" id="Rectangle-5" fill="#00BDF2"/>
                    <ellipse id="Oval-32" fill="#FFFFFF" cx="124.158835" cy="224.291964" rx="71.4550018" ry="71.4213635"/>
                    <ellipse id="Oval-32" fill="#FFFFFF" cx="221.131533" cy="282.334886" rx="67.9538328" ry="67.9218427"/>
                    <ellipse id="Oval-32" fill="#FFFFFF" cx="191.09669" cy="274.82971" rx="67.9538328" ry="67.9218427"/>
                    <ellipse id="Oval-32" fill="#FFFFFF" cx="295.657666" cy="219.792443" rx="67.9538328" ry="67.9218427"/>
                    <ellipse id="Oval-32" fill="#FFFFFF" cx="127.272648" cy="200.528468" rx="70.9573171" ry="70.923913"/>
                    <g transform="translate(71.332753, 0.000000)" id="Oval-1">
                        <ellipse fill="#FFFFFF" cx="248.223446" cy="290.863179" rx="50.744352" ry="50.6975473"/>
                        <ellipse fill="#FFFFFF" cx="139.745451" cy="333.281631" rx="69.9144406" ry="69.8499541"/>
                        <ellipse fill="#FFFFFF" cx="43.9730558" cy="314.120867" rx="39.4678294" ry="39.4314257"/>
                        <path d="M55.8187872,280.401064 C86.6466522,280.401064 111.637574,255.433192 111.637574,224.633762 C111.637574,193.834331 86.6466522,168.86646 55.8187872,168.86646 C24.9909223,168.86646 0,193.834331 0,224.633762 C0,255.433192 24.9909223,280.401064 55.8187872,280.401064 Z M140.667219,388.475598 C171.495084,388.475598 196.486007,363.507726 196.486007,332.708296 C196.486007,301.908865 171.495084,276.940994 140.667219,276.940994 C109.839354,276.940994 84.8484321,301.908865 84.8484321,332.708296 C84.8484321,363.507726 109.839354,388.475598 140.667219,388.475598 Z M179.512014,255.993362 C204.42342,255.993362 224.618105,235.817304 224.618105,210.928876 C224.618105,186.040447 204.42342,165.864389 179.512014,165.864389 C154.600608,165.864389 134.405923,186.040447 134.405923,210.928876 C134.405923,235.817304 154.600608,255.993362 179.512014,255.993362 Z M96.1653241,165.180733 C121.07673,165.180733 141.271415,145.004675 141.271415,120.116246 C141.271415,95.2278177 121.07673,75.0517598 96.1653241,75.0517598 C71.2539181,75.0517598 51.0592334,95.2278177 51.0592334,120.116246 C51.0592334,145.004675 71.2539181,165.180733 96.1653241,165.180733 Z M248.394343,327.655256 C268.634861,327.655256 285.043042,311.262209 285.043042,291.040361 C285.043042,270.818513 268.634861,254.425466 248.394343,254.425466 C228.153826,254.425466 211.745645,270.818513 211.745645,291.040361 C211.745645,311.262209 228.153826,327.655256 248.394343,327.655256 Z M156.0372,73.2297906 C176.277718,73.2297906 192.685899,56.8367436 192.685899,36.6148953 C192.685899,16.393047 176.277718,0 156.0372,0 C135.796683,0 119.388502,16.393047 119.388502,36.6148953 C119.388502,56.8367436 135.796683,73.2297906 156.0372,73.2297906 Z M223.062537,162.178662 C247.973943,162.178662 268.168627,142.002605 268.168627,117.114176 C268.168627,92.2257473 247.973943,72.0496894 223.062537,72.0496894 C198.151131,72.0496894 177.956446,92.2257473 177.956446,117.114176 C177.956446,142.002605 198.151131,162.178662 223.062537,162.178662 Z M42.6422109,341.147858 C56.6548767,341.147858 68.0143869,329.798825 68.0143869,315.799084 C68.0143869,301.799343 56.6548767,290.450311 42.6422109,290.450311 C28.629545,290.450311 17.2700348,301.799343 17.2700348,315.799084 C17.2700348,329.798825 28.629545,341.147858 42.6422109,341.147858 Z" fill="url(#linearGradient-2)"/>
                    </g>
                </g>
                <g id="Group" transform="translate(0.000000, 689.000000)">
                    <g id="Group-+-Page-1-+-Page-1-+-Page-1" transform="translate(0.000000, 75.990476)">
                        <g id="Group">
                            <g id="Page-1" transform="translate(0.000000, 0.376190)">
                                <path d="M2.1975846,2.5372919 C2.87661565,1.85638714 3.68470012,1.30564429 4.58244671,0.924939524 C3.68470012,1.30564429 2.87661565,1.85638714 2.1975846,2.5372919" id="Fill-1" fill="#FBAD23"/>
                                <g id="Group-5">
                                    <mask id="mask-4" fill="white">
                                        <use xlink:href="#path-3"/>
                                    </mask>
                                    <g id="Clip-4"/>
                                    <path d="M15.0060611,7.85741524 L15.0060611,15.3812248 L15.0060611,15.3812248 L36.7872015,15.3812248 C50.0478152,15.3812248 59.6720487,25.98152 59.6720487,40.5859867 C59.6720487,36.4305867 63.0311891,33.0621771 67.1751543,33.0621771 C71.3191195,33.0621771 74.6782599,36.4305867 74.6782599,40.5859867 C74.6782599,17.7640152 58.5657158,0.526215238 37.1402226,0.33812 C37.1109605,0.33774381 37.0824487,0.333605714 37.0531866,0.333605714 L7.50295553,0.333605714 L7.50295553,0.333605714 C11.6469207,0.333605714 15.0060611,3.70201524 15.0060611,7.85741524" id="Fill-3" fill="#42C3FB" mask="url(#mask-4)"/>
                                </g>
                                <path d="M0.692349068,4.71498333 C1.06637888,3.90165952 1.57396398,3.16282143 2.19747205,2.53721667 C1.57396398,3.16282143 1.06637888,3.90165952 0.692349068,4.71498333" id="Fill-6" fill="#FBAD23"/>
                                <path id="Fill-8" fill="#FBAD23" d="M0.199957764,6.15571762 C0.277239752,5.82166048 0.377406211,5.4970081 0.497080745,5.18176048 C0.377406211,5.4970081 0.277239752,5.82166048 0.199957764,6.15571762"/>
                                <path d="M67.1751543,33.0621771 C63.0311891,33.0621771 59.6720487,36.4305867 59.6720487,40.5859867 C59.6720487,44.7413867 63.0311891,48.1097962 67.1751543,48.1097962 C71.3191195,48.1097962 74.6782599,44.7413867 74.6782599,40.5859867 C74.6782599,36.4305867 71.3191195,33.0621771 67.1751543,33.0621771" id="Fill-10" fill="#42C3FB"/>
                                <path d="M0,73.3145581 L0,73.3574438 C0,77.5124676 3.35914037,80.8808771 7.50310559,80.8808771 C7.7705913,80.8808771 8.03432547,80.8658295 8.29430807,80.8383676 L7.50310559,80.8383676 C3.35914037,80.8383676 0,77.4699581 0,73.3145581" id="Fill-12" fill="#F04F23"/>
                                <path id="Fill-14" fill="#F04F23" d="M0.497268323,5.18183571 C0.557293168,5.02345952 0.622195031,4.86771667 0.692349068,4.71498333 C0.622195031,4.86771667 0.557293168,5.02345952 0.497268323,5.18183571"/>
                                <path id="Fill-16" fill="#F04F23" d="M0,7.85741524 L0,7.85741524 C0,7.27131048 0.0735304348,6.70326286 0.199957764,6.15590571 C0.0735304348,6.70326286 0,7.27131048 0,7.85741524"/>
                                <g id="Group-20">
                                    <mask id="mask-6" fill="white">
                                        <use xlink:href="#path-5"/>
                                    </mask>
                                    <g id="Clip-19"/>
                                    <path id="Fill-18" fill="#F04F23" mask="url(#mask-6)" d="M7.50303056,0.333605714 C6.98494112,0.333605714 6.4792318,0.386272381 5.99077963,0.486715238 C6.4792318,0.386272381 6.98494112,0.333605714 7.50303056,0.333605714 L7.50303056,0.333605714 Z"/>
                                </g>
                                <g id="Group-23">
                                    <mask id="mask-8" fill="white">
                                        <use xlink:href="#path-7"/>
                                    </mask>
                                    <g id="Clip-22"/>
                                    <path d="M67.1751543,48.1097962 C63.0311891,48.1097962 59.6720487,44.7413867 59.6720487,40.5859867 C59.6720487,55.1904533 50.0478152,65.7907486 36.7872015,65.7907486 L15.0060611,65.7907486 L7.50295553,65.7907486 C3.35936547,65.7907486 -0.000150062112,69.1591581 -0.000150062112,73.3145581 C-0.000150062112,77.4699581 3.35936547,80.8383676 7.50295553,80.8383676 L8.29453317,80.8383676 L37.066317,80.8383676 C37.0970798,80.8383676 37.1270922,80.8338533 37.1578549,80.8338533 C58.5743443,80.6363533 74.6782599,63.4015629 74.6782599,40.5859867 C74.6782599,44.7413867 71.3191195,48.1097962 67.1751543,48.1097962" id="Fill-21" fill="#199EFA" mask="url(#mask-8)"/>
                                </g>
                                <g id="Group-26">
                                    <mask id="mask-10" fill="white">
                                        <use xlink:href="#path-9"/>
                                    </mask>
                                    <g id="Clip-25"/>
                                    <path d="M7.50306807,0.333605714 C3.26869043,0.333605714 -3.7515528e-05,3.80509143 -3.7515528e-05,7.85741524 L-3.7515528e-05,73.3145581 C-3.7515528e-05,69.1591581 3.35910286,65.7907486 7.50306807,65.7907486 L15.0061737,65.7907486 L15.0061737,15.3812248 L15.0061737,7.85741524 C15.0061737,3.70201524 11.6470333,0.333605714 7.50306807,0.333605714" id="Fill-24" fill="#5B78FD" mask="url(#mask-10)"/>
                                </g>
                            </g>
                            <g id="Page-1" transform="translate(87.036025, 0.376190)">
                                <g id="Group-3">
                                    <mask id="mask-12" fill="white">
                                        <use xlink:href="#path-11"/>
                                    </mask>
                                    <g id="Clip-2"/>
                                    <path d="M58.0100358,80.8809524 C55.766232,80.8809524 53.5471886,79.8761476 52.0687016,77.9579524 L31.1102768,50.771419 C28.5761029,47.4842667 29.1793525,42.7585619 32.4578345,40.2173952 C35.7363165,37.6758524 40.4482668,38.2803905 42.9828159,41.5686714 L63.9408656,68.755581 C66.4754147,72.0427333 65.872165,76.7680619 62.593683,79.3092286 C61.2277426,80.3682048 59.612324,80.8809524 58.0100358,80.8809524" id="Fill-1" fill="#42C3FB" mask="url(#mask-12)"/>
                                </g>
                                <path d="M38.9223602,0.375814286 L7.50310559,0.375814286 C11.6470708,0.375814286 15.0062112,3.74422381 15.0062112,7.89962381 L15.0062112,15.4234333 L38.9223602,15.4234333 C45.307128,15.4234333 50.501528,20.6325429 50.501528,27.0349286 C50.501528,33.4376905 45.307128,38.6460476 38.9223602,38.6460476 L37.0465839,38.6460476 L15.0062112,38.6460476 L7.50310559,38.6460476 C3.35914037,38.6460476 0,42.0148333 0,46.1698571 C0,50.3252571 3.35914037,53.6936667 7.50310559,53.6936667 L15.0062112,53.6936667 L37.0465839,53.6936667 L38.9223602,53.6936667 C53.5815528,53.6936667 65.5077391,41.7345714 65.5077391,27.0349286 C65.5077391,12.3349095 53.5815528,0.375814286 38.9223602,0.375814286" id="Fill-4" fill="#199EFA"/>
                                <path d="M7.50310559,80.8805762 C11.6470708,80.8805762 15.0062112,77.5121667 15.0062112,73.3567667 L15.0062112,53.6936667 L7.50310559,53.6936667 C3.35914037,53.6936667 0,50.3252571 0,46.1698571 L0,73.3567667 C0,77.5121667 3.35914037,80.8805762 7.50310559,80.8805762" id="Fill-6" fill="#5B78FD"/>
                                <path d="M7.50310559,0.375814286 C3.35914037,0.375814286 0,3.74422381 0,7.89962381 L0,46.1698571 C0,42.0148333 3.35914037,38.6460476 7.50310559,38.6460476 L15.0062112,38.6460476 L15.0062112,15.4234333 L15.0062112,7.89962381 C15.0062112,3.74422381 11.6470708,0.375814286 7.50310559,0.375814286" id="Fill-8" fill="#5B78FD"/>
                            </g>
                            <g id="Page-1" transform="translate(164.693168, 0.376190)">
                                <path d="M51.021118,80.5047619 L7.50310559,80.5047619 C3.35914037,80.5047619 0,77.1363524 0,72.9809524 C0,68.8255524 3.35914037,65.4571429 7.50310559,65.4571429 L51.021118,65.4571429 C55.1650832,65.4571429 58.5242236,68.8255524 58.5242236,72.9809524 C58.5242236,77.1363524 55.1650832,80.5047619 51.021118,80.5047619" id="Fill-1" fill="#42C3FB"/>
                                <path d="M44.6434783,32.7285714 L15.0062112,32.7285714 L15.0062112,7.52380952 C15.0062112,3.36840952 11.6470708,0 7.50310559,0 C3.35914037,0 0,3.36840952 0,7.52380952 L0,72.9809524 C0,77.1363524 3.35914037,80.5047619 7.50310559,80.5047619 C11.6470708,80.5047619 15.0062112,77.1363524 15.0062112,72.9809524 L15.0062112,47.7761905 L44.6434783,47.7761905 C48.7874435,47.7761905 52.1465839,44.407781 52.1465839,40.252381 C52.1465839,36.096981 48.7874435,32.7285714 44.6434783,32.7285714" id="Fill-3" fill="#5B78FD"/>
                                <path d="M51.021118,15.047619 L7.50310559,15.047619 C3.35914037,15.047619 0,11.6792095 0,7.52380952 C0,3.36840952 3.35914037,0 7.50310559,0 L51.021118,0 C55.1650832,0 58.5242236,3.36840952 58.5242236,7.52380952 C58.5242236,11.6792095 55.1650832,15.047619 51.021118,15.047619" id="Fill-5" fill="#199EFA"/>
                            </g>
                            <g id="Page-1" transform="translate(235.222360, 0.000000)">
                                <g id="Group-3">
                                    <mask id="mask-14" fill="white">
                                        <use xlink:href="#path-13"/>
                                    </mask>
                                    <g id="Clip-2"/>
                                    <path d="M7.49864124,80.8808771 C6.35554311,80.8808771 5.19593814,80.6182962 4.10686236,80.0637914 C0.412333168,78.1817105 -1.06165193,73.6531295 0.815249938,69.9484057 L33.9707232,4.49126286 C35.8468748,0.786539048 40.362994,-0.691513333 44.0582735,1.19056762 C47.7528027,3.07227238 49.2267878,7.60085333 47.349886,11.3055771 L14.1944127,76.76272 C12.8708648,79.375739 10.2338984,80.8808771 7.49864124,80.8808771" id="Fill-1" fill="#5B78FD" mask="url(#mask-14)"/>
                                </g>
                                <path d="M14.8634646,51.32788 C10.7194994,51.32788 7.36035901,54.6962895 7.36035901,58.8516895 C7.36035901,63.0070895 10.7194994,66.375499 14.8634646,66.375499 L61.8651689,66.375499 L54.2431391,51.32788 L14.8634646,51.32788 Z" id="Fill-4" fill="#42C3FB"/>
                                <g id="Group-8">
                                    <mask id="mask-16" fill="white">
                                        <use xlink:href="#path-15"/>
                                    </mask>
                                    <g id="Clip-7"/>
                                    <path d="M80.5055468,69.9485562 L47.3500735,4.49141333 C45.4735468,0.786313333 40.9574276,-0.690986667 37.2625232,1.1903419 C33.567994,3.07204667 32.0940089,7.60100381 33.9709108,11.3057276 L54.2431766,51.32788 L61.8648313,66.375499 L67.1263841,76.7624943 C68.4499319,79.3758895 71.0865232,80.8810276 73.8221555,80.8810276 C74.9648785,80.8810276 76.1252338,80.6180705 77.2139344,80.0639419 C80.9084636,78.181861 82.3824487,73.65328 80.5055468,69.9485562" id="Fill-6" fill="#199EFA" mask="url(#mask-16)"/>
                                </g>
                            </g>
                            <g id="Page-1" transform="translate(328.636025, 0.000000)">
                                <path d="M71.8785511,80.8808771 C67.7345858,80.8808771 64.3754455,77.5124676 64.3754455,73.3570676 L64.3754455,7.89992476 C64.3754455,3.74452476 67.7345858,0.376115238 71.8785511,0.376115238 C76.0225163,0.376115238 79.3816566,3.74452476 79.3816566,7.89992476 L79.3816566,73.3570676 C79.3816566,77.5124676 76.0225163,80.8808771 71.8785511,80.8808771" id="Fill-1" fill="#5B78FD"/>
                                <path d="M77.8473091,12.4590524 C80.3582234,9.15346667 79.7212097,4.43227619 76.4250954,1.91480952 C73.1282308,-0.603409524 68.420032,0.0349857143 65.9098681,3.34132381 L39.2367029,38.4556952 L13.5471948,3.44101429 C11.0918035,0.094047619 6.39523453,-0.622595238 3.05710286,1.83957143 C-0.280653665,4.3017381 -0.995699627,9.01164286 1.46006683,12.3586095 C35.4116196,58.6341762 33.1261737,55.5392571 33.4292991,55.8955095 C36.5644718,59.572019 42.3178532,59.3764 45.1862904,55.4568714 L77.8473091,12.4590524 Z" id="Fill-3" fill="#199EFA"/>
                                <path d="M7.50351826,80.8808771 C3.35955304,80.8808771 0.000412670807,77.5124676 0.000412670807,73.3570676 L0.000412670807,7.89992476 C0.000412670807,3.74452476 3.35955304,0.376115238 7.50351826,0.376115238 C11.6474835,0.376115238 15.0066239,3.74452476 15.0066239,7.89992476 L15.0066239,73.3570676 C15.0066239,77.5124676 11.6474835,80.8808771 7.50351826,80.8808771" id="Fill-5" fill="#42C3FB"/>
                            </g>
                        </g>
                        <g id="Page-1-+-Page-1-+-Page-1" transform="translate(427.677019, 0.752381)">
                            <g id="Page-1">
                                <path d="M7.45562125,0.374360516 C3.33790222,0.374360516 3.72779196e-05,3.72739049 3.72779196e-05,7.86381768 L3.72779196e-05,73.0217205 C3.72779196e-05,77.1581477 3.33790222,80.5111777 7.45562125,80.5111777 C11.5733403,80.5111777 14.9112052,77.1581477 14.9112052,73.0217205 L14.9112052,7.86381768 C14.9112052,3.72739049 11.5733403,0.374360516 7.45562125,0.374360516" id="Fill-1" fill="#5B78FD"/>
                                <path d="M7.45491297,63.0194007 C5.59213531,63.0194007 3.72749376,62.3228812 2.28073769,60.9208548 C-0.683229715,58.0501459 -0.76934171,53.3085705 2.08875641,50.3311368 L47.8447936,2.6648612 C50.7025189,-0.312946967 55.4219036,-0.399450198 58.3866165,2.47238215 C61.3509567,5.34384003 61.4366959,10.0850409 58.5785978,13.0624746 L12.8225607,60.7287502 C11.3597751,62.2528547 9.40864875,63.0194007 7.45491297,63.0194007" id="Fill-3" fill="#199EFA"/>
                                <g id="Group-7">
                                    <mask id="mask-18" fill="white">
                                        <use xlink:href="#path-17"/>
                                    </mask>
                                    <g id="Clip-6"/>
                                    <path d="M57.7424168,80.5117394 C55.5870075,80.5117394 53.448746,79.5774296 51.974777,77.7732194 L21.144819,40.0338447 C18.5323824,36.836221 18.9953741,32.1174885 22.1785357,29.4931827 C25.3616973,26.8692514 30.0594607,27.3343467 32.6715246,30.531596 L63.5014826,68.2709706 C66.1135465,71.4685943 65.6505547,76.1873268 62.4677659,78.8116326 C61.0810273,79.9548982 59.4065031,80.5117394 57.7424168,80.5117394" id="Fill-5" fill="#42C3FB" mask="url(#mask-18)"/>
                                </g>
                            </g>
                            <g id="Page-1" transform="translate(78.283632, 0.374473)">
                                <g id="Group-3">
                                    <mask id="mask-20" fill="white">
                                        <use xlink:href="#path-19"/>
                                    </mask>
                                    <g id="Clip-2"/>
                                    <path d="M7.45550942,80.1372291 L7.45550942,80.1372291 C3.33779039,80.1372291 -7.45558396e-05,76.7841991 -7.45558396e-05,72.6477719 L-7.45558396e-05,7.48986908 C-7.45558396e-05,3.35381636 3.33779039,0.000411920144 7.45550942,0.000411920144 L7.45550942,0.000411920144 C11.5732284,0.000411920144 14.9110934,3.35381636 14.9110934,7.48986908 L14.9110934,72.6477719 C14.9110934,76.7841991 11.5732284,80.1372291 7.45550942,80.1372291" id="Fill-1" fill="#5B78FD" mask="url(#mask-20)"/>
                                </g>
                                <g id="Group-6">
                                    <mask id="mask-22" fill="white">
                                        <use xlink:href="#path-21"/>
                                    </mask>
                                    <g id="Clip-5"/>
                                    <path d="M7.45550942,43.7835164 L7.45550942,43.7835164 C3.33779039,43.7835164 -7.45558396e-05,40.4304864 -7.45558396e-05,36.2940592 L-7.45558396e-05,7.48998142 C-7.45558396e-05,3.35355423 3.33779039,0.000524262001 7.45550942,0.000524262001 L7.45550942,0.000524262001 C11.5732284,0.000524262001 14.9110934,3.35355423 14.9110934,7.48998142 L14.9110934,36.2940592 C14.9110934,40.4304864 11.5732284,43.7835164 7.45550942,43.7835164" id="Fill-4" fill="#199EFA" mask="url(#mask-22)"/>
                                </g>
                            </g>
                            <g id="Page-1" transform="translate(106.242072, 0.374473)">
                                <path d="M34.6684655,80.1371916 C30.5507464,80.1371916 27.2128815,76.7841617 27.2128815,72.6477345 L27.2128815,7.48945716 C27.2128815,3.35302997 30.5507464,0 34.6684655,0 C38.7861845,0 42.1240494,3.35302997 42.1240494,7.48945716 L42.1240494,72.6477345 C42.1240494,76.7841617 38.7861845,80.1371916 34.6684655,80.1371916" id="Fill-1" fill="#5B78FD"/>
                                <path d="M34.6684655,80.1371916 C30.5507464,80.1371916 27.2128815,76.7841617 27.2128815,72.6477345 L27.2128815,45.8107626 C27.2128815,41.6743354 30.5507464,38.3213055 34.6684655,38.3213055 C38.7861845,38.3213055 42.1240494,41.6743354 42.1240494,45.8107626 L42.1240494,72.6477345 C42.1240494,76.7841617 38.7861845,80.1371916 34.6684655,80.1371916" id="Fill-3" fill="#199EFA"/>
                                <path d="M61.881347,14.9789143 L7.45558397,14.9789143 C3.33786494,14.9789143 0,11.6258844 0,7.48945716 C0,3.35302997 3.33786494,0 7.45558397,0 L61.881347,0 C65.999066,0 69.3369309,3.35302997 69.3369309,7.48945716 C69.3369309,11.6258844 65.999066,14.9789143 61.881347,14.9789143" id="Fill-5" fill="#42C3FB"/>
                            </g>
                        </g>
                    </g>
                    <g transform="translate(186.827329, 0.000000)" id="Page-1">
                        <g>
                            <g>
                                <path d="M53.2843592,48.5887221 L53.2843592,48.5887221 C55.0640782,46.2749684 54.6481185,42.9435449 52.3560044,41.1476414 C50.0631021,39.3517379 46.7617012,39.7712151 44.9819822,42.0847037 C44.9817195,42.0847037 44.9817195,42.0849688 44.9817195,42.0849688 C42.9184752,44.7667595 40.1691471,46.864676 37.0311871,48.1522749 C27.1910993,52.1892793 15.9304946,47.3955189 11.9298715,37.4656812 C13.022981,40.1790255 11.7296432,43.2726038 9.04075147,44.375654 C6.35212248,45.4787041 3.28616049,44.1736049 2.19305097,41.4605258 C8.37673999,56.8077714 25.7808303,64.2172986 40.9897676,57.9773758 C45.8378134,55.9884385 50.0893788,52.741865 53.2843592,48.5887221" id="Fill-1" fill="#42C3FB"/>
                                <g id="Group-5">
                                    <mask id="mask-24" fill="white">
                                        <use xlink:href="#path-23"/>
                                    </mask>
                                    <g id="Clip-4"/>
                                    <path d="M53.2846483,48.5884305 C59.7873361,40.134983 61.3484331,28.7311416 57.3583206,18.8278196 C53.3679453,8.92449759 44.364244,1.85516593 33.8606702,0.37877575 L33.8601447,0.37877575 C30.9857396,-0.0250572687 28.3307448,1.99914579 27.9305511,4.89969037 C27.5300946,7.80076526 29.5357929,10.4796392 32.4104607,10.8837374 L32.4107235,10.8837374 C39.211126,11.8393606 45.0395544,16.414102 47.6215001,22.822399 C50.2034458,29.230696 49.1920567,36.6115863 44.9817457,42.0849423 L44.9817457,42.0849423 C44.9817457,42.0849423 44.9817457,42.0846772 44.9820085,42.0846772 C46.7617274,39.7711886 50.0631284,39.3517113 52.3560307,41.1476149 C54.6481447,42.9435184 55.0641044,46.2749419 53.2843855,48.5886956 L53.2843855,48.5886956 L53.2846483,48.5884305" id="Fill-3" fill="#197CFA" mask="url(#mask-24)"/>
                                </g>
                                <g id="Group-8">
                                    <mask id="mask-26" fill="white">
                                        <use xlink:href="#path-25"/>
                                    </mask>
                                    <g id="Clip-7"/>
                                    <path d="M33.860171,0.37877575 C28.6996955,-0.346161527 23.4094133,0.321767149 18.5613675,2.31096958 C3.35216749,8.55062723 -3.99058549,26.1129885 2.19310353,41.4604993 C3.28621304,44.1735784 6.35191226,45.4789427 9.04080402,44.3756274 C11.729433,43.2725773 13.0230335,40.178999 11.9296612,37.4656547 C7.92903806,27.5360822 12.6798602,16.1730749 22.519948,12.1360705 C25.6581708,10.8487367 29.0780796,10.4154714 32.410487,10.8837374 C29.5358192,10.4796392 27.5301209,7.80076526 27.9305774,4.89969037 C28.3307711,1.99914579 30.9857659,-0.0250572687 33.860171,0.37877575" id="Fill-6" fill="#199EFA" mask="url(#mask-26)"/>
                                </g>
                            </g>
                            <g transform="translate(70.764256, 0.552206)">
                                <path d="M5.47970151,59.0860638 C2.45326237,59.0860638 0,56.6138366 0,53.5640017 L0,5.52206204 C0,2.47222717 2.45326237,0 5.47970151,0 C8.50614066,0 10.959403,2.47222717 10.959403,5.52206204 L10.959403,53.5640017 C10.959403,56.6138366 8.50614066,59.0860638 5.47970151,59.0860638" id="Fill-1" fill="#5B78FD"/>
                                <path d="M25.1381307,41.8935378 C22.1116915,41.8935378 19.6584292,39.4213106 19.6584292,36.3714758 C19.6584292,33.3216409 22.1116915,30.8494137 25.1381307,30.8494137 C30.5564595,30.8494137 34.9646054,26.4071909 34.9646054,20.946976 C34.9646054,15.4864849 30.5564595,11.0442621 25.1381307,11.0442621 C22.1116915,11.0442621 19.6584292,8.57175885 19.6584292,5.52220009 C19.6584292,2.47236522 22.1116915,0.000138051551 25.1381307,0.000138051551 C36.5994744,0.000138051551 45.9240084,9.39675491 45.9240084,20.946976 C45.9240084,32.4969209 36.5994744,41.8935378 25.1381307,41.8935378" id="Fill-3" fill="#4CA5FC"/>
                                <path d="M25.1381307,41.8935378 L5.47970151,41.8935378 C2.45326237,41.8935378 0,39.4213106 0,36.3714758 C0,33.3216409 2.45326237,30.8494137 5.47970151,30.8494137 L25.1381307,30.8494137 C28.1645698,30.8494137 30.6178322,33.3216409 30.6178322,36.3714758 C30.6178322,39.4213106 28.1645698,41.8935378 25.1381307,41.8935378" id="Fill-5" fill="#4CA5FC"/>
                                <path d="M25.1381307,11.0441241 L5.47970151,11.0441241 C2.45326237,11.0441241 0,8.5718969 0,5.52206204 C0,2.47222717 2.45326237,0 5.47970151,0 L25.1381307,0 C28.1645698,0 30.6178322,2.47222717 30.6178322,5.52206204 C30.6178322,8.5718969 28.1645698,11.0441241 25.1381307,11.0441241" id="Fill-7" fill="#42C3FB"/>
                            </g>
                            <g transform="translate(124.465331, 0.552206)">
                                <path d="M37.2619703,59.0860638 L5.47970151,59.0860638 C2.45326237,59.0860638 0,56.6138366 0,53.5640017 C0,50.5141669 2.45326237,48.0419397 5.47970151,48.0419397 L37.2619703,48.0419397 C40.2884094,48.0419397 42.7416718,50.5141669 42.7416718,53.5640017 C42.7416718,56.6138366 40.2884094,59.0860638 37.2619703,59.0860638" id="Fill-1" fill="#4CA5FC"/>
                                <path d="M10.959403,24.0209699 L10.959403,5.52206204 C10.959403,2.47222717 8.50614066,0 5.47970151,0 C2.45326237,0 0,2.47222717 0,5.52206204 L0,53.5640017 C0,56.6138366 2.45326237,59.0860638 5.47970151,59.0860638 C8.50614066,59.0860638 10.959403,56.6138366 10.959403,53.5640017 L10.959403,35.0650939 L32.604224,35.0650939 C35.6306631,35.0650939 38.0839255,32.5928668 38.0839255,29.5430319 C38.0839255,26.493197 35.6306631,24.0209699 32.604224,24.0209699 L10.959403,24.0209699 Z" id="Fill-3" fill="#5B78FD"/>
                                <path d="M37.2619703,11.0441241 L5.47970151,11.0441241 C2.45326237,11.0441241 0,8.5718969 0,5.52206204 C0,2.47222717 2.45326237,0 5.47970151,0 L37.2619703,0 C40.2884094,0 42.7416718,2.47222717 42.7416718,5.52206204 C42.7416718,8.5718969 40.2884094,11.0441241 37.2619703,11.0441241" id="Fill-5" fill="#42C3FB"/>
                            </g>
                            <g transform="translate(179.384118, 0.552206)">
                                <path d="M45.4310638,59.0860638 C42.4368208,59.0860638 40.009657,56.6253353 40.009657,53.5896858 L40.009657,5.77119693 C40.009657,2.73554734 42.4368208,0.274818901 45.4310638,0.274818901 C48.4253068,0.274818901 50.8524706,2.73554734 50.8524706,5.77119693 L50.8524706,53.5896858 C50.8524706,56.6253353 48.4253068,59.0860638 45.4310638,59.0860638" id="Fill-1" fill="#42C3FB"/>
                                <g id="Group-5">
                                    <mask id="mask-28" fill="white">
                                        <use xlink:href="#path-27"/>
                                    </mask>
                                    <g id="Clip-4"/>
                                    <path d="M49.5654287,50.0342162 C49.1721056,49.5642759 9.71998606,2.40315388 9.43075401,2.07969204 C10.3057691,3.05584877 10.8435726,4.34832207 10.8435726,5.77133434 L10.8435726,20.7475904 L41.296699,57.1451553 C42.3690533,58.4269106 43.8962636,59.0862012 45.4337745,59.0862012 C46.6728371,59.0862012 47.9189474,58.6574837 48.9381719,57.7810862 C51.2213974,55.8175052 51.5022262,52.3492906 49.5654287,50.0342162" id="Fill-3" fill="#4CA5FC" mask="url(#mask-28)"/>
                                </g>
                                <g id="Group-8">
                                    <mask id="mask-30" fill="white">
                                        <use xlink:href="#path-29"/>
                                    </mask>
                                    <g id="Clip-7"/>
                                    <path d="M8.8237462,1.49419037 C5.33479984,-1.36172766 0.154645629,1.08718357 0.00989406744,5.58981645 C-0.00420159028,6.02622887 0.000948746193,53.0897902 0.000948746193,53.5896858 C0.000948746193,56.6253353 2.42811258,59.0860638 5.42235556,59.0860638 C8.41659855,59.0860638 10.8437624,56.6253353 10.8437624,53.5896858 L10.8437624,20.7477278 L10.8437624,5.77119693 C10.8437624,4.13684892 10.1175649,2.55361723 8.8237462,1.49419037" id="Fill-6" fill="#5B78FD" mask="url(#mask-30)"/>
                                </g>
                            </g>
                        </g>
                    </g>
                    <rect id="Rectangle-14" fill="#199EFA" x="450.186335" y="25.5809524" width="153.813665" height="10.5333333" rx="3"/>
                    <rect id="Rectangle-14" fill="#199EFA" x="0" y="25.5809524" width="153.813665" height="10.5333333" rx="3"/>
                </g>
            </g>
        </g>
    </g>
</svg>
